<svg width="1032" height="480" viewBox="0 0 1032 480" fill="none" xmlns="http://www.w3.org/2000/svg">
<rect width="1032" height="480" fill="#00093C"/>
<g opacity="0.5">
<ellipse cx="-0.980276" cy="1.08597" rx="1.01972" ry="1.08597" fill="#27AAE1"/>
<ellipse cx="21.4536" cy="1.08597" rx="1.01972" ry="1.08597" fill="#27AAE1"/>
<ellipse cx="43.8876" cy="1.08597" rx="1.01972" ry="1.08597" fill="#27AAE1"/>
<ellipse cx="66.3215" cy="1.08597" rx="1.01972" ry="1.08597" fill="#27AAE1"/>
<ellipse cx="88.7553" cy="1.08597" rx="1.01972" ry="1.08597" fill="#27AAE1"/>
<ellipse cx="111.189" cy="1.08597" rx="1.01972" ry="1.08597" fill="#27AAE1"/>
<ellipse cx="133.623" cy="1.08597" rx="1.01972" ry="1.08597" fill="#27AAE1"/>
<ellipse cx="156.057" cy="1.08597" rx="1.01972" ry="1.08597" fill="#27AAE1"/>
<ellipse cx="178.491" cy="1.08597" rx="1.01972" ry="1.08597" fill="#27AAE1"/>
<ellipse cx="200.925" cy="1.08597" rx="1.01972" ry="1.08597" fill="#27AAE1"/>
<ellipse cx="223.359" cy="1.08597" rx="1.01972" ry="1.08597" fill="#27AAE1"/>
<ellipse cx="245.793" cy="1.08597" rx="1.01972" ry="1.08597" fill="#27AAE1"/>
<ellipse cx="268.227" cy="1.08597" rx="1.01972" ry="1.08597" fill="#27AAE1"/>
<ellipse cx="290.661" cy="1.08597" rx="1.01972" ry="1.08597" fill="#27AAE1"/>
<ellipse cx="313.095" cy="1.08597" rx="1.01972" ry="1.08597" fill="#27AAE1"/>
<ellipse cx="335.529" cy="1.08597" rx="1.01972" ry="1.08597" fill="#27AAE1"/>
<ellipse cx="357.963" cy="1.08597" rx="1.01972" ry="1.08597" fill="#27AAE1"/>
<ellipse cx="380.396" cy="1.08597" rx="1.01972" ry="1.08597" fill="#27AAE1"/>
<ellipse cx="402.83" cy="1.08597" rx="1.01972" ry="1.08597" fill="#27AAE1"/>
<ellipse cx="425.264" cy="1.08597" rx="1.01972" ry="1.08597" fill="#27AAE1"/>
<ellipse cx="447.698" cy="1.08597" rx="1.01972" ry="1.08597" fill="#27AAE1"/>
<ellipse cx="470.132" cy="1.08597" rx="1.01972" ry="1.08597" fill="#27AAE1"/>
<ellipse cx="492.566" cy="1.08597" rx="1.01972" ry="1.08597" fill="#27AAE1"/>
<ellipse cx="515" cy="1.08597" rx="1.01972" ry="1.08597" fill="#27AAE1"/>
<ellipse cx="537.434" cy="1.08597" rx="1.01972" ry="1.08597" fill="#27AAE1"/>
<ellipse cx="559.868" cy="1.08597" rx="1.01972" ry="1.08597" fill="#27AAE1"/>
<ellipse cx="582.302" cy="1.08597" rx="1.01972" ry="1.08597" fill="#27AAE1"/>
<ellipse cx="604.736" cy="1.08597" rx="1.01972" ry="1.08597" fill="#27AAE1"/>
<ellipse cx="627.17" cy="1.08597" rx="1.01972" ry="1.08597" fill="#27AAE1"/>
<ellipse cx="649.603" cy="1.08597" rx="1.01972" ry="1.08597" fill="#27AAE1"/>
<ellipse cx="672.038" cy="1.08597" rx="1.01972" ry="1.08597" fill="#27AAE1"/>
<ellipse cx="694.471" cy="1.08597" rx="1.01972" ry="1.08597" fill="#27AAE1"/>
<ellipse cx="716.905" cy="1.08597" rx="1.01972" ry="1.08597" fill="#27AAE1"/>
<ellipse cx="739.339" cy="1.08597" rx="1.01972" ry="1.08597" fill="#27AAE1"/>
<ellipse cx="761.773" cy="1.08597" rx="1.01972" ry="1.08597" fill="#27AAE1"/>
<ellipse cx="784.207" cy="1.08597" rx="1.01972" ry="1.08597" fill="#27AAE1"/>
<ellipse cx="806.641" cy="1.08597" rx="1.01972" ry="1.08597" fill="#27AAE1"/>
<ellipse cx="829.075" cy="1.08597" rx="1.01972" ry="1.08597" fill="#27AAE1"/>
<ellipse cx="851.509" cy="1.08597" rx="1.01972" ry="1.08597" fill="#27AAE1"/>
<ellipse cx="873.943" cy="1.08597" rx="1.01972" ry="1.08597" fill="#27AAE1"/>
<ellipse cx="896.377" cy="1.08597" rx="1.01972" ry="1.08597" fill="#27AAE1"/>
<ellipse cx="918.811" cy="1.08597" rx="1.01972" ry="1.08597" fill="#27AAE1"/>
<ellipse cx="941.245" cy="1.08597" rx="1.01972" ry="1.08597" fill="#27AAE1"/>
<ellipse cx="963.678" cy="1.08597" rx="1.01972" ry="1.08597" fill="#27AAE1"/>
<ellipse cx="986.112" cy="1.08597" rx="1.01972" ry="1.08597" fill="#27AAE1"/>
<ellipse cx="1008.55" cy="1.08597" rx="1.01972" ry="1.08597" fill="#27AAE1"/>
<ellipse cx="1030.98" cy="1.08597" rx="1.01972" ry="1.08597" fill="#27AAE1"/>
<ellipse cx="-0.980276" cy="24.9776" rx="1.01972" ry="1.08597" fill="#27AAE1"/>
<ellipse cx="21.4536" cy="24.9776" rx="1.01972" ry="1.08597" fill="#27AAE1"/>
<ellipse cx="43.8876" cy="24.9776" rx="1.01972" ry="1.08597" fill="#27AAE1"/>
<ellipse cx="66.3215" cy="24.9776" rx="1.01972" ry="1.08597" fill="#27AAE1"/>
<ellipse cx="88.7553" cy="24.9776" rx="1.01972" ry="1.08597" fill="#27AAE1"/>
<ellipse cx="111.189" cy="24.9776" rx="1.01972" ry="1.08597" fill="#27AAE1"/>
<ellipse cx="133.623" cy="24.9776" rx="1.01972" ry="1.08597" fill="#27AAE1"/>
<ellipse cx="156.057" cy="24.9776" rx="1.01972" ry="1.08597" fill="#27AAE1"/>
<ellipse cx="178.491" cy="24.9776" rx="1.01972" ry="1.08597" fill="#27AAE1"/>
<ellipse cx="200.925" cy="24.9776" rx="1.01972" ry="1.08597" fill="#27AAE1"/>
<ellipse cx="223.359" cy="24.9776" rx="1.01972" ry="1.08597" fill="#27AAE1"/>
<ellipse cx="245.793" cy="24.9776" rx="1.01972" ry="1.08597" fill="#27AAE1"/>
<ellipse cx="268.227" cy="24.9776" rx="1.01972" ry="1.08597" fill="#27AAE1"/>
<ellipse cx="290.661" cy="24.9776" rx="1.01972" ry="1.08597" fill="#27AAE1"/>
<ellipse cx="313.095" cy="24.9776" rx="1.01972" ry="1.08597" fill="#27AAE1"/>
<ellipse cx="335.529" cy="24.9776" rx="1.01972" ry="1.08597" fill="#27AAE1"/>
<ellipse cx="357.963" cy="24.9776" rx="1.01972" ry="1.08597" fill="#27AAE1"/>
<ellipse cx="380.396" cy="24.9776" rx="1.01972" ry="1.08597" fill="#27AAE1"/>
<ellipse cx="402.83" cy="24.9776" rx="1.01972" ry="1.08597" fill="#27AAE1"/>
<ellipse cx="425.264" cy="24.9776" rx="1.01972" ry="1.08597" fill="#27AAE1"/>
<ellipse cx="447.698" cy="24.9776" rx="1.01972" ry="1.08597" fill="#27AAE1"/>
<ellipse cx="470.132" cy="24.9776" rx="1.01972" ry="1.08597" fill="#27AAE1"/>
<ellipse cx="492.566" cy="24.9776" rx="1.01972" ry="1.08597" fill="#27AAE1"/>
<ellipse cx="515" cy="24.9776" rx="1.01972" ry="1.08597" fill="#27AAE1"/>
<ellipse cx="537.434" cy="24.9776" rx="1.01972" ry="1.08597" fill="#27AAE1"/>
<ellipse cx="559.868" cy="24.9776" rx="1.01972" ry="1.08597" fill="#27AAE1"/>
<ellipse cx="582.302" cy="24.9776" rx="1.01972" ry="1.08597" fill="#27AAE1"/>
<ellipse cx="604.736" cy="24.9776" rx="1.01972" ry="1.08597" fill="#27AAE1"/>
<ellipse cx="627.17" cy="24.9776" rx="1.01972" ry="1.08597" fill="#27AAE1"/>
<ellipse cx="649.603" cy="24.9776" rx="1.01972" ry="1.08597" fill="#27AAE1"/>
<ellipse cx="672.038" cy="24.9776" rx="1.01972" ry="1.08597" fill="#27AAE1"/>
<ellipse cx="694.471" cy="24.9776" rx="1.01972" ry="1.08597" fill="#27AAE1"/>
<ellipse cx="716.905" cy="24.9776" rx="1.01972" ry="1.08597" fill="#27AAE1"/>
<ellipse cx="739.339" cy="24.9776" rx="1.01972" ry="1.08597" fill="#27AAE1"/>
<ellipse cx="761.773" cy="24.9776" rx="1.01972" ry="1.08597" fill="#27AAE1"/>
<ellipse cx="784.207" cy="24.9776" rx="1.01972" ry="1.08597" fill="#27AAE1"/>
<ellipse cx="806.641" cy="24.9776" rx="1.01972" ry="1.08597" fill="#27AAE1"/>
<ellipse cx="829.075" cy="24.9776" rx="1.01972" ry="1.08597" fill="#27AAE1"/>
<ellipse cx="851.509" cy="24.9776" rx="1.01972" ry="1.08597" fill="#27AAE1"/>
<ellipse cx="873.943" cy="24.9776" rx="1.01972" ry="1.08597" fill="#27AAE1"/>
<ellipse cx="896.377" cy="24.9776" rx="1.01972" ry="1.08597" fill="#27AAE1"/>
<ellipse cx="918.811" cy="24.9776" rx="1.01972" ry="1.08597" fill="#27AAE1"/>
<ellipse cx="941.245" cy="24.9776" rx="1.01972" ry="1.08597" fill="#27AAE1"/>
<ellipse cx="963.678" cy="24.9776" rx="1.01972" ry="1.08597" fill="#27AAE1"/>
<ellipse cx="986.112" cy="24.9776" rx="1.01972" ry="1.08597" fill="#27AAE1"/>
<ellipse cx="1008.55" cy="24.9776" rx="1.01972" ry="1.08597" fill="#27AAE1"/>
<ellipse cx="1030.98" cy="24.9776" rx="1.01972" ry="1.08597" fill="#27AAE1"/>
<ellipse cx="-0.980276" cy="48.8687" rx="1.01972" ry="1.08597" fill="#27AAE1"/>
<ellipse cx="21.4536" cy="48.8687" rx="1.01972" ry="1.08597" fill="#27AAE1"/>
<ellipse cx="43.8876" cy="48.8687" rx="1.01972" ry="1.08597" fill="#27AAE1"/>
<ellipse cx="66.3215" cy="48.8687" rx="1.01972" ry="1.08597" fill="#27AAE1"/>
<ellipse cx="88.7553" cy="48.8687" rx="1.01972" ry="1.08597" fill="#27AAE1"/>
<ellipse cx="111.189" cy="48.8687" rx="1.01972" ry="1.08597" fill="#27AAE1"/>
<ellipse cx="133.623" cy="48.8687" rx="1.01972" ry="1.08597" fill="#27AAE1"/>
<ellipse cx="156.057" cy="48.8687" rx="1.01972" ry="1.08597" fill="#27AAE1"/>
<ellipse cx="178.491" cy="48.8687" rx="1.01972" ry="1.08597" fill="#27AAE1"/>
<ellipse cx="200.925" cy="48.8687" rx="1.01972" ry="1.08597" fill="#27AAE1"/>
<ellipse cx="223.359" cy="48.8687" rx="1.01972" ry="1.08597" fill="#27AAE1"/>
<ellipse cx="245.793" cy="48.8687" rx="1.01972" ry="1.08597" fill="#27AAE1"/>
<ellipse cx="268.227" cy="48.8687" rx="1.01972" ry="1.08597" fill="#27AAE1"/>
<ellipse cx="290.661" cy="48.8687" rx="1.01972" ry="1.08597" fill="#27AAE1"/>
<ellipse cx="313.095" cy="48.8687" rx="1.01972" ry="1.08597" fill="#27AAE1"/>
<ellipse cx="335.529" cy="48.8687" rx="1.01972" ry="1.08597" fill="#27AAE1"/>
<ellipse cx="357.963" cy="48.8687" rx="1.01972" ry="1.08597" fill="#27AAE1"/>
<ellipse cx="380.396" cy="48.8687" rx="1.01972" ry="1.08597" fill="#27AAE1"/>
<ellipse cx="402.83" cy="48.8687" rx="1.01972" ry="1.08597" fill="#27AAE1"/>
<ellipse cx="425.264" cy="48.8687" rx="1.01972" ry="1.08597" fill="#27AAE1"/>
<ellipse cx="447.698" cy="48.8687" rx="1.01972" ry="1.08597" fill="#27AAE1"/>
<ellipse cx="470.132" cy="48.8687" rx="1.01972" ry="1.08597" fill="#27AAE1"/>
<ellipse cx="492.566" cy="48.8687" rx="1.01972" ry="1.08597" fill="#27AAE1"/>
<ellipse cx="515" cy="48.8687" rx="1.01972" ry="1.08597" fill="#27AAE1"/>
<ellipse cx="537.434" cy="48.8687" rx="1.01972" ry="1.08597" fill="#27AAE1"/>
<ellipse cx="559.868" cy="48.8687" rx="1.01972" ry="1.08597" fill="#27AAE1"/>
<ellipse cx="582.302" cy="48.8687" rx="1.01972" ry="1.08597" fill="#27AAE1"/>
<ellipse cx="604.736" cy="48.8687" rx="1.01972" ry="1.08597" fill="#27AAE1"/>
<ellipse cx="627.17" cy="48.8687" rx="1.01972" ry="1.08597" fill="#27AAE1"/>
<ellipse cx="649.603" cy="48.8687" rx="1.01972" ry="1.08597" fill="#27AAE1"/>
<ellipse cx="672.038" cy="48.8687" rx="1.01972" ry="1.08597" fill="#27AAE1"/>
<ellipse cx="694.471" cy="48.8687" rx="1.01972" ry="1.08597" fill="#27AAE1"/>
<ellipse cx="716.905" cy="48.8687" rx="1.01972" ry="1.08597" fill="#27AAE1"/>
<ellipse cx="739.339" cy="48.8687" rx="1.01972" ry="1.08597" fill="#27AAE1"/>
<ellipse cx="761.773" cy="48.8687" rx="1.01972" ry="1.08597" fill="#27AAE1"/>
<ellipse cx="784.207" cy="48.8687" rx="1.01972" ry="1.08597" fill="#27AAE1"/>
<ellipse cx="806.641" cy="48.8687" rx="1.01972" ry="1.08597" fill="#27AAE1"/>
<ellipse cx="829.075" cy="48.8687" rx="1.01972" ry="1.08597" fill="#27AAE1"/>
<ellipse cx="851.509" cy="48.8687" rx="1.01972" ry="1.08597" fill="#27AAE1"/>
<ellipse cx="873.943" cy="48.8687" rx="1.01972" ry="1.08597" fill="#27AAE1"/>
<ellipse cx="896.377" cy="48.8687" rx="1.01972" ry="1.08597" fill="#27AAE1"/>
<ellipse cx="918.811" cy="48.8687" rx="1.01972" ry="1.08597" fill="#27AAE1"/>
<ellipse cx="941.245" cy="48.8687" rx="1.01972" ry="1.08597" fill="#27AAE1"/>
<ellipse cx="963.678" cy="48.8687" rx="1.01972" ry="1.08597" fill="#27AAE1"/>
<ellipse cx="986.112" cy="48.8687" rx="1.01972" ry="1.08597" fill="#27AAE1"/>
<ellipse cx="1008.55" cy="48.8687" rx="1.01972" ry="1.08597" fill="#27AAE1"/>
<ellipse cx="1030.98" cy="48.8687" rx="1.01972" ry="1.08597" fill="#27AAE1"/>
<ellipse cx="-0.980276" cy="72.7603" rx="1.01972" ry="1.08597" fill="#27AAE1"/>
<ellipse cx="21.4536" cy="72.7603" rx="1.01972" ry="1.08597" fill="#27AAE1"/>
<ellipse cx="43.8876" cy="72.7603" rx="1.01972" ry="1.08597" fill="#27AAE1"/>
<ellipse cx="66.3215" cy="72.7603" rx="1.01972" ry="1.08597" fill="#27AAE1"/>
<ellipse cx="88.7553" cy="72.7603" rx="1.01972" ry="1.08597" fill="#27AAE1"/>
<ellipse cx="111.189" cy="72.7603" rx="1.01972" ry="1.08597" fill="#27AAE1"/>
<ellipse cx="133.623" cy="72.7603" rx="1.01972" ry="1.08597" fill="#27AAE1"/>
<ellipse cx="156.057" cy="72.7603" rx="1.01972" ry="1.08597" fill="#27AAE1"/>
<ellipse cx="178.491" cy="72.7603" rx="1.01972" ry="1.08597" fill="#27AAE1"/>
<ellipse cx="200.925" cy="72.7603" rx="1.01972" ry="1.08597" fill="#27AAE1"/>
<ellipse cx="223.359" cy="72.7603" rx="1.01972" ry="1.08597" fill="#27AAE1"/>
<ellipse cx="245.793" cy="72.7603" rx="1.01972" ry="1.08597" fill="#27AAE1"/>
<ellipse cx="268.227" cy="72.7603" rx="1.01972" ry="1.08597" fill="#27AAE1"/>
<ellipse cx="290.661" cy="72.7603" rx="1.01972" ry="1.08597" fill="#27AAE1"/>
<ellipse cx="313.095" cy="72.7603" rx="1.01972" ry="1.08597" fill="#27AAE1"/>
<ellipse cx="335.529" cy="72.7603" rx="1.01972" ry="1.08597" fill="#27AAE1"/>
<ellipse cx="357.963" cy="72.7603" rx="1.01972" ry="1.08597" fill="#27AAE1"/>
<ellipse cx="380.396" cy="72.7603" rx="1.01972" ry="1.08597" fill="#27AAE1"/>
<ellipse cx="402.83" cy="72.7603" rx="1.01972" ry="1.08597" fill="#27AAE1"/>
<ellipse cx="425.264" cy="72.7603" rx="1.01972" ry="1.08597" fill="#27AAE1"/>
<ellipse cx="447.698" cy="72.7603" rx="1.01972" ry="1.08597" fill="#27AAE1"/>
<ellipse cx="470.132" cy="72.7603" rx="1.01972" ry="1.08597" fill="#27AAE1"/>
<ellipse cx="492.566" cy="72.7603" rx="1.01972" ry="1.08597" fill="#27AAE1"/>
<ellipse cx="515" cy="72.7603" rx="1.01972" ry="1.08597" fill="#27AAE1"/>
<ellipse cx="537.434" cy="72.7603" rx="1.01972" ry="1.08597" fill="#27AAE1"/>
<ellipse cx="559.868" cy="72.7603" rx="1.01972" ry="1.08597" fill="#27AAE1"/>
<ellipse cx="582.302" cy="72.7603" rx="1.01972" ry="1.08597" fill="#27AAE1"/>
<ellipse cx="604.736" cy="72.7603" rx="1.01972" ry="1.08597" fill="#27AAE1"/>
<ellipse cx="627.17" cy="72.7603" rx="1.01972" ry="1.08597" fill="#27AAE1"/>
<ellipse cx="649.603" cy="72.7603" rx="1.01972" ry="1.08597" fill="#27AAE1"/>
<ellipse cx="672.038" cy="72.7603" rx="1.01972" ry="1.08597" fill="#27AAE1"/>
<ellipse cx="694.471" cy="72.7603" rx="1.01972" ry="1.08597" fill="#27AAE1"/>
<ellipse cx="716.905" cy="72.7603" rx="1.01972" ry="1.08597" fill="#27AAE1"/>
<ellipse cx="739.339" cy="72.7603" rx="1.01972" ry="1.08597" fill="#27AAE1"/>
<ellipse cx="761.773" cy="72.7603" rx="1.01972" ry="1.08597" fill="#27AAE1"/>
<ellipse cx="784.207" cy="72.7603" rx="1.01972" ry="1.08597" fill="#27AAE1"/>
<ellipse cx="806.641" cy="72.7603" rx="1.01972" ry="1.08597" fill="#27AAE1"/>
<ellipse cx="829.075" cy="72.7603" rx="1.01972" ry="1.08597" fill="#27AAE1"/>
<ellipse cx="851.509" cy="72.7603" rx="1.01972" ry="1.08597" fill="#27AAE1"/>
<ellipse cx="873.943" cy="72.7603" rx="1.01972" ry="1.08597" fill="#27AAE1"/>
<ellipse cx="896.377" cy="72.7603" rx="1.01972" ry="1.08597" fill="#27AAE1"/>
<ellipse cx="918.811" cy="72.7603" rx="1.01972" ry="1.08597" fill="#27AAE1"/>
<ellipse cx="941.245" cy="72.7603" rx="1.01972" ry="1.08597" fill="#27AAE1"/>
<ellipse cx="963.678" cy="72.7603" rx="1.01972" ry="1.08597" fill="#27AAE1"/>
<ellipse cx="986.112" cy="72.7603" rx="1.01972" ry="1.08597" fill="#27AAE1"/>
<ellipse cx="1008.55" cy="72.7603" rx="1.01972" ry="1.08597" fill="#27AAE1"/>
<ellipse cx="1030.98" cy="72.7603" rx="1.01972" ry="1.08597" fill="#27AAE1"/>
<ellipse cx="-0.980276" cy="96.6514" rx="1.01972" ry="1.08597" fill="#27AAE1"/>
<ellipse cx="21.4536" cy="96.6514" rx="1.01972" ry="1.08597" fill="#27AAE1"/>
<ellipse cx="43.8876" cy="96.6514" rx="1.01972" ry="1.08597" fill="#27AAE1"/>
<ellipse cx="66.3215" cy="96.6514" rx="1.01972" ry="1.08597" fill="#27AAE1"/>
<ellipse cx="88.7553" cy="96.6514" rx="1.01972" ry="1.08597" fill="#27AAE1"/>
<ellipse cx="111.189" cy="96.6514" rx="1.01972" ry="1.08597" fill="#27AAE1"/>
<ellipse cx="133.623" cy="96.6514" rx="1.01972" ry="1.08597" fill="#27AAE1"/>
<ellipse cx="156.057" cy="96.6514" rx="1.01972" ry="1.08597" fill="#27AAE1"/>
<ellipse cx="178.491" cy="96.6514" rx="1.01972" ry="1.08597" fill="#27AAE1"/>
<ellipse cx="200.925" cy="96.6514" rx="1.01972" ry="1.08597" fill="#27AAE1"/>
<ellipse cx="223.359" cy="96.6514" rx="1.01972" ry="1.08597" fill="#27AAE1"/>
<ellipse cx="245.793" cy="96.6514" rx="1.01972" ry="1.08597" fill="#27AAE1"/>
<ellipse cx="268.227" cy="96.6514" rx="1.01972" ry="1.08597" fill="#27AAE1"/>
<ellipse cx="290.661" cy="96.6514" rx="1.01972" ry="1.08597" fill="#27AAE1"/>
<ellipse cx="313.095" cy="96.6514" rx="1.01972" ry="1.08597" fill="#27AAE1"/>
<ellipse cx="335.529" cy="96.6514" rx="1.01972" ry="1.08597" fill="#27AAE1"/>
<ellipse cx="357.963" cy="96.6514" rx="1.01972" ry="1.08597" fill="#27AAE1"/>
<ellipse cx="380.396" cy="96.6514" rx="1.01972" ry="1.08597" fill="#27AAE1"/>
<ellipse cx="402.83" cy="96.6514" rx="1.01972" ry="1.08597" fill="#27AAE1"/>
<ellipse cx="425.264" cy="96.6514" rx="1.01972" ry="1.08597" fill="#27AAE1"/>
<ellipse cx="447.698" cy="96.6514" rx="1.01972" ry="1.08597" fill="#27AAE1"/>
<ellipse cx="470.132" cy="96.6514" rx="1.01972" ry="1.08597" fill="#27AAE1"/>
<ellipse cx="492.566" cy="96.6514" rx="1.01972" ry="1.08597" fill="#27AAE1"/>
<ellipse cx="515" cy="96.6514" rx="1.01972" ry="1.08597" fill="#27AAE1"/>
<ellipse cx="537.434" cy="96.6514" rx="1.01972" ry="1.08597" fill="#27AAE1"/>
<ellipse cx="559.868" cy="96.6514" rx="1.01972" ry="1.08597" fill="#27AAE1"/>
<ellipse cx="582.302" cy="96.6514" rx="1.01972" ry="1.08597" fill="#27AAE1"/>
<ellipse cx="604.736" cy="96.6514" rx="1.01972" ry="1.08597" fill="#27AAE1"/>
<ellipse cx="627.17" cy="96.6514" rx="1.01972" ry="1.08597" fill="#27AAE1"/>
<ellipse cx="649.603" cy="96.6514" rx="1.01972" ry="1.08597" fill="#27AAE1"/>
<ellipse cx="672.038" cy="96.6514" rx="1.01972" ry="1.08597" fill="#27AAE1"/>
<ellipse cx="694.471" cy="96.6514" rx="1.01972" ry="1.08597" fill="#27AAE1"/>
<ellipse cx="716.905" cy="96.6514" rx="1.01972" ry="1.08597" fill="#27AAE1"/>
<ellipse cx="739.339" cy="96.6514" rx="1.01972" ry="1.08597" fill="#27AAE1"/>
<ellipse cx="761.773" cy="96.6514" rx="1.01972" ry="1.08597" fill="#27AAE1"/>
<ellipse cx="784.207" cy="96.6514" rx="1.01972" ry="1.08597" fill="#27AAE1"/>
<ellipse cx="806.641" cy="96.6514" rx="1.01972" ry="1.08597" fill="#27AAE1"/>
<ellipse cx="829.075" cy="96.6514" rx="1.01972" ry="1.08597" fill="#27AAE1"/>
<ellipse cx="851.509" cy="96.6514" rx="1.01972" ry="1.08597" fill="#27AAE1"/>
<ellipse cx="873.943" cy="96.6514" rx="1.01972" ry="1.08597" fill="#27AAE1"/>
<ellipse cx="896.377" cy="96.6514" rx="1.01972" ry="1.08597" fill="#27AAE1"/>
<ellipse cx="918.811" cy="96.6514" rx="1.01972" ry="1.08597" fill="#27AAE1"/>
<ellipse cx="941.245" cy="96.6514" rx="1.01972" ry="1.08597" fill="#27AAE1"/>
<ellipse cx="963.678" cy="96.6514" rx="1.01972" ry="1.08597" fill="#27AAE1"/>
<ellipse cx="986.112" cy="96.6514" rx="1.01972" ry="1.08597" fill="#27AAE1"/>
<ellipse cx="1008.55" cy="96.6514" rx="1.01972" ry="1.08597" fill="#27AAE1"/>
<ellipse cx="1030.98" cy="96.6514" rx="1.01972" ry="1.08597" fill="#27AAE1"/>
<ellipse cx="-0.980276" cy="120.543" rx="1.01972" ry="1.08597" fill="#27AAE1"/>
<ellipse cx="21.4536" cy="120.543" rx="1.01972" ry="1.08597" fill="#27AAE1"/>
<ellipse cx="43.8876" cy="120.543" rx="1.01972" ry="1.08597" fill="#27AAE1"/>
<ellipse cx="66.3215" cy="120.543" rx="1.01972" ry="1.08597" fill="#27AAE1"/>
<ellipse cx="88.7553" cy="120.543" rx="1.01972" ry="1.08597" fill="#27AAE1"/>
<ellipse cx="111.189" cy="120.543" rx="1.01972" ry="1.08597" fill="#27AAE1"/>
<ellipse cx="133.623" cy="120.543" rx="1.01972" ry="1.08597" fill="#27AAE1"/>
<ellipse cx="156.057" cy="120.543" rx="1.01972" ry="1.08597" fill="#27AAE1"/>
<ellipse cx="178.491" cy="120.543" rx="1.01972" ry="1.08597" fill="#27AAE1"/>
<ellipse cx="200.925" cy="120.543" rx="1.01972" ry="1.08597" fill="#27AAE1"/>
<ellipse cx="223.359" cy="120.543" rx="1.01972" ry="1.08597" fill="#27AAE1"/>
<ellipse cx="245.793" cy="120.543" rx="1.01972" ry="1.08597" fill="#27AAE1"/>
<ellipse cx="268.227" cy="120.543" rx="1.01972" ry="1.08597" fill="#27AAE1"/>
<ellipse cx="290.661" cy="120.543" rx="1.01972" ry="1.08597" fill="#27AAE1"/>
<ellipse cx="313.095" cy="120.543" rx="1.01972" ry="1.08597" fill="#27AAE1"/>
<ellipse cx="335.529" cy="120.543" rx="1.01972" ry="1.08597" fill="#27AAE1"/>
<ellipse cx="963.678" cy="120.543" rx="1.01972" ry="1.08597" fill="#27AAE1"/>
<ellipse cx="986.112" cy="120.543" rx="1.01972" ry="1.08597" fill="#27AAE1"/>
<ellipse cx="1008.55" cy="120.543" rx="1.01972" ry="1.08597" fill="#27AAE1"/>
<ellipse cx="1030.98" cy="120.543" rx="1.01972" ry="1.08597" fill="#27AAE1"/>
<ellipse cx="-0.980276" cy="144.435" rx="1.01972" ry="1.08597" fill="#27AAE1"/>
<ellipse cx="21.4536" cy="144.435" rx="1.01972" ry="1.08597" fill="#27AAE1"/>
<ellipse cx="43.8876" cy="144.435" rx="1.01972" ry="1.08597" fill="#27AAE1"/>
<ellipse cx="66.3215" cy="144.435" rx="1.01972" ry="1.08597" fill="#27AAE1"/>
<ellipse cx="88.7553" cy="144.435" rx="1.01972" ry="1.08597" fill="#27AAE1"/>
<ellipse cx="111.189" cy="144.435" rx="1.01972" ry="1.08597" fill="#27AAE1"/>
<ellipse cx="133.623" cy="144.435" rx="1.01972" ry="1.08597" fill="#27AAE1"/>
<ellipse cx="156.057" cy="144.435" rx="1.01972" ry="1.08597" fill="#27AAE1"/>
<ellipse cx="178.491" cy="144.435" rx="1.01972" ry="1.08597" fill="#27AAE1"/>
<ellipse cx="200.925" cy="144.435" rx="1.01972" ry="1.08597" fill="#27AAE1"/>
<ellipse cx="223.359" cy="144.435" rx="1.01972" ry="1.08597" fill="#27AAE1"/>
<ellipse cx="245.793" cy="144.435" rx="1.01972" ry="1.08597" fill="#27AAE1"/>
<ellipse cx="268.227" cy="144.435" rx="1.01972" ry="1.08597" fill="#27AAE1"/>
<ellipse cx="290.661" cy="144.435" rx="1.01972" ry="1.08597" fill="#27AAE1"/>
<ellipse cx="313.095" cy="144.435" rx="1.01972" ry="1.08597" fill="#27AAE1"/>
<ellipse cx="335.529" cy="144.435" rx="1.01972" ry="1.08597" fill="#27AAE1"/>
<ellipse cx="963.678" cy="144.435" rx="1.01972" ry="1.08597" fill="#27AAE1"/>
<ellipse cx="986.112" cy="144.435" rx="1.01972" ry="1.08597" fill="#27AAE1"/>
<ellipse cx="1008.55" cy="144.435" rx="1.01972" ry="1.08597" fill="#27AAE1"/>
<ellipse cx="1030.98" cy="144.435" rx="1.01972" ry="1.08597" fill="#27AAE1"/>
<ellipse cx="-0.980276" cy="168.326" rx="1.01972" ry="1.08597" fill="#27AAE1"/>
<ellipse cx="21.4536" cy="168.326" rx="1.01972" ry="1.08597" fill="#27AAE1"/>
<ellipse cx="43.8876" cy="168.326" rx="1.01972" ry="1.08597" fill="#27AAE1"/>
<ellipse cx="66.3215" cy="168.326" rx="1.01972" ry="1.08597" fill="#27AAE1"/>
<ellipse cx="88.7553" cy="168.326" rx="1.01972" ry="1.08597" fill="#27AAE1"/>
<ellipse cx="111.189" cy="168.326" rx="1.01972" ry="1.08597" fill="#27AAE1"/>
<ellipse cx="133.623" cy="168.326" rx="1.01972" ry="1.08597" fill="#27AAE1"/>
<ellipse cx="156.057" cy="168.326" rx="1.01972" ry="1.08597" fill="#27AAE1"/>
<ellipse cx="178.491" cy="168.326" rx="1.01972" ry="1.08597" fill="#27AAE1"/>
<ellipse cx="200.925" cy="168.326" rx="1.01972" ry="1.08597" fill="#27AAE1"/>
<ellipse cx="223.359" cy="168.326" rx="1.01972" ry="1.08597" fill="#27AAE1"/>
<ellipse cx="245.793" cy="168.326" rx="1.01972" ry="1.08597" fill="#27AAE1"/>
<ellipse cx="268.227" cy="168.326" rx="1.01972" ry="1.08597" fill="#27AAE1"/>
<ellipse cx="290.661" cy="168.326" rx="1.01972" ry="1.08597" fill="#27AAE1"/>
<ellipse cx="313.095" cy="168.326" rx="1.01972" ry="1.08597" fill="#27AAE1"/>
<ellipse cx="335.529" cy="168.326" rx="1.01972" ry="1.08597" fill="#27AAE1"/>
<ellipse cx="963.678" cy="168.326" rx="1.01972" ry="1.08597" fill="#27AAE1"/>
<ellipse cx="986.112" cy="168.326" rx="1.01972" ry="1.08597" fill="#27AAE1"/>
<ellipse cx="1008.55" cy="168.326" rx="1.01972" ry="1.08597" fill="#27AAE1"/>
<ellipse cx="1030.98" cy="168.326" rx="1.01972" ry="1.08597" fill="#27AAE1"/>
<ellipse cx="-0.980276" cy="192.217" rx="1.01972" ry="1.08597" fill="#27AAE1"/>
<ellipse cx="21.4536" cy="192.217" rx="1.01972" ry="1.08597" fill="#27AAE1"/>
<ellipse cx="43.8876" cy="192.217" rx="1.01972" ry="1.08597" fill="#27AAE1"/>
<ellipse cx="66.3215" cy="192.217" rx="1.01972" ry="1.08597" fill="#27AAE1"/>
<ellipse cx="88.7553" cy="192.217" rx="1.01972" ry="1.08597" fill="#27AAE1"/>
<ellipse cx="111.189" cy="192.217" rx="1.01972" ry="1.08597" fill="#27AAE1"/>
<ellipse cx="133.623" cy="192.217" rx="1.01972" ry="1.08597" fill="#27AAE1"/>
<ellipse cx="156.057" cy="192.217" rx="1.01972" ry="1.08597" fill="#27AAE1"/>
<ellipse cx="178.491" cy="192.217" rx="1.01972" ry="1.08597" fill="#27AAE1"/>
<ellipse cx="200.925" cy="192.217" rx="1.01972" ry="1.08597" fill="#27AAE1"/>
<ellipse cx="223.359" cy="192.217" rx="1.01972" ry="1.08597" fill="#27AAE1"/>
<ellipse cx="245.793" cy="192.217" rx="1.01972" ry="1.08597" fill="#27AAE1"/>
<ellipse cx="268.227" cy="192.217" rx="1.01972" ry="1.08597" fill="#27AAE1"/>
<ellipse cx="290.661" cy="192.217" rx="1.01972" ry="1.08597" fill="#27AAE1"/>
<ellipse cx="313.095" cy="192.217" rx="1.01972" ry="1.08597" fill="#27AAE1"/>
<ellipse cx="335.529" cy="192.217" rx="1.01972" ry="1.08597" fill="#27AAE1"/>
<ellipse cx="806.641" cy="192.217" rx="1.01972" ry="1.08597" fill="#27AAE1"/>
<ellipse cx="829.075" cy="192.217" rx="1.01972" ry="1.08597" fill="#27AAE1"/>
<ellipse cx="851.509" cy="192.217" rx="1.01972" ry="1.08597" fill="#27AAE1"/>
<ellipse cx="873.943" cy="192.217" rx="1.01972" ry="1.08597" fill="#27AAE1"/>
<ellipse cx="896.377" cy="192.217" rx="1.01972" ry="1.08597" fill="#27AAE1"/>
<ellipse cx="918.811" cy="192.217" rx="1.01972" ry="1.08597" fill="#27AAE1"/>
<ellipse cx="941.245" cy="192.217" rx="1.01972" ry="1.08597" fill="#27AAE1"/>
<ellipse cx="963.678" cy="192.217" rx="1.01972" ry="1.08597" fill="#27AAE1"/>
<ellipse cx="986.112" cy="192.217" rx="1.01972" ry="1.08597" fill="#27AAE1"/>
<ellipse cx="1008.55" cy="192.217" rx="1.01972" ry="1.08597" fill="#27AAE1"/>
<ellipse cx="1030.98" cy="192.217" rx="1.01972" ry="1.08597" fill="#27AAE1"/>
<ellipse cx="-0.980276" cy="216.108" rx="1.01972" ry="1.08597" fill="#27AAE1"/>
<ellipse cx="21.4536" cy="216.108" rx="1.01972" ry="1.08597" fill="#27AAE1"/>
<ellipse cx="43.8876" cy="216.108" rx="1.01972" ry="1.08597" fill="#27AAE1"/>
<ellipse cx="66.3215" cy="216.108" rx="1.01972" ry="1.08597" fill="#27AAE1"/>
<ellipse cx="88.7553" cy="216.108" rx="1.01972" ry="1.08597" fill="#27AAE1"/>
<ellipse cx="111.189" cy="216.108" rx="1.01972" ry="1.08597" fill="#27AAE1"/>
<ellipse cx="133.623" cy="216.108" rx="1.01972" ry="1.08597" fill="#27AAE1"/>
<ellipse cx="156.057" cy="216.108" rx="1.01972" ry="1.08597" fill="#27AAE1"/>
<ellipse cx="178.491" cy="216.108" rx="1.01972" ry="1.08597" fill="#27AAE1"/>
<ellipse cx="200.925" cy="216.108" rx="1.01972" ry="1.08597" fill="#27AAE1"/>
<ellipse cx="223.359" cy="216.108" rx="1.01972" ry="1.08597" fill="#27AAE1"/>
<ellipse cx="245.793" cy="216.108" rx="1.01972" ry="1.08597" fill="#27AAE1"/>
<ellipse cx="268.227" cy="216.108" rx="1.01972" ry="1.08597" fill="#27AAE1"/>
<ellipse cx="290.661" cy="216.108" rx="1.01972" ry="1.08597" fill="#27AAE1"/>
<ellipse cx="313.095" cy="216.108" rx="1.01972" ry="1.08597" fill="#27AAE1"/>
<ellipse cx="335.529" cy="216.108" rx="1.01972" ry="1.08597" fill="#27AAE1"/>
<ellipse cx="806.641" cy="216.108" rx="1.01972" ry="1.08597" fill="#27AAE1"/>
<ellipse cx="829.075" cy="216.108" rx="1.01972" ry="1.08597" fill="#27AAE1"/>
<ellipse cx="851.509" cy="216.108" rx="1.01972" ry="1.08597" fill="#27AAE1"/>
<ellipse cx="873.943" cy="216.108" rx="1.01972" ry="1.08597" fill="#27AAE1"/>
<ellipse cx="896.377" cy="216.108" rx="1.01972" ry="1.08597" fill="#27AAE1"/>
<ellipse cx="918.811" cy="216.108" rx="1.01972" ry="1.08597" fill="#27AAE1"/>
<ellipse cx="941.245" cy="216.108" rx="1.01972" ry="1.08597" fill="#27AAE1"/>
<ellipse cx="963.678" cy="216.108" rx="1.01972" ry="1.08597" fill="#27AAE1"/>
<ellipse cx="986.112" cy="216.108" rx="1.01972" ry="1.08597" fill="#27AAE1"/>
<ellipse cx="1008.55" cy="216.108" rx="1.01972" ry="1.08597" fill="#27AAE1"/>
<ellipse cx="1030.98" cy="216.108" rx="1.01972" ry="1.08597" fill="#27AAE1"/>
<ellipse cx="-0.980276" cy="240" rx="1.01972" ry="1.08597" fill="#27AAE1"/>
<ellipse cx="21.4536" cy="240" rx="1.01972" ry="1.08597" fill="#27AAE1"/>
<ellipse cx="43.8876" cy="240" rx="1.01972" ry="1.08597" fill="#27AAE1"/>
<ellipse cx="66.3215" cy="240" rx="1.01972" ry="1.08597" fill="#27AAE1"/>
<ellipse cx="88.7553" cy="240" rx="1.01972" ry="1.08597" fill="#27AAE1"/>
<ellipse cx="111.189" cy="240" rx="1.01972" ry="1.08597" fill="#27AAE1"/>
<ellipse cx="133.623" cy="240" rx="1.01972" ry="1.08597" fill="#27AAE1"/>
<ellipse cx="156.057" cy="240" rx="1.01972" ry="1.08597" fill="#27AAE1"/>
<ellipse cx="178.491" cy="240" rx="1.01972" ry="1.08597" fill="#27AAE1"/>
<ellipse cx="200.925" cy="240" rx="1.01972" ry="1.08597" fill="#27AAE1"/>
<ellipse cx="223.359" cy="240" rx="1.01972" ry="1.08597" fill="#27AAE1"/>
<ellipse cx="245.793" cy="240" rx="1.01972" ry="1.08597" fill="#27AAE1"/>
<ellipse cx="268.227" cy="240" rx="1.01972" ry="1.08597" fill="#27AAE1"/>
<ellipse cx="290.661" cy="240" rx="1.01972" ry="1.08597" fill="#27AAE1"/>
<ellipse cx="313.095" cy="240" rx="1.01972" ry="1.08597" fill="#27AAE1"/>
<ellipse cx="335.529" cy="240" rx="1.01972" ry="1.08597" fill="#27AAE1"/>
<ellipse cx="806.641" cy="240" rx="1.01972" ry="1.08597" fill="#27AAE1"/>
<ellipse cx="829.075" cy="240" rx="1.01972" ry="1.08597" fill="#27AAE1"/>
<ellipse cx="851.509" cy="240" rx="1.01972" ry="1.08597" fill="#27AAE1"/>
<ellipse cx="873.943" cy="240" rx="1.01972" ry="1.08597" fill="#27AAE1"/>
<ellipse cx="896.377" cy="240" rx="1.01972" ry="1.08597" fill="#27AAE1"/>
<ellipse cx="918.811" cy="240" rx="1.01972" ry="1.08597" fill="#27AAE1"/>
<ellipse cx="941.245" cy="240" rx="1.01972" ry="1.08597" fill="#27AAE1"/>
<ellipse cx="963.678" cy="240" rx="1.01972" ry="1.08597" fill="#27AAE1"/>
<ellipse cx="986.112" cy="240" rx="1.01972" ry="1.08597" fill="#27AAE1"/>
<ellipse cx="1008.55" cy="240" rx="1.01972" ry="1.08597" fill="#27AAE1"/>
<ellipse cx="1030.98" cy="240" rx="1.01972" ry="1.08597" fill="#27AAE1"/>
<ellipse cx="-0.980276" cy="263.892" rx="1.01972" ry="1.08597" fill="#27AAE1"/>
<ellipse cx="21.4536" cy="263.892" rx="1.01972" ry="1.08597" fill="#27AAE1"/>
<ellipse cx="43.8876" cy="263.892" rx="1.01972" ry="1.08597" fill="#27AAE1"/>
<ellipse cx="66.3215" cy="263.892" rx="1.01972" ry="1.08597" fill="#27AAE1"/>
<ellipse cx="88.7553" cy="263.892" rx="1.01972" ry="1.08597" fill="#27AAE1"/>
<ellipse cx="111.189" cy="263.892" rx="1.01972" ry="1.08597" fill="#27AAE1"/>
<ellipse cx="133.623" cy="263.892" rx="1.01972" ry="1.08597" fill="#27AAE1"/>
<ellipse cx="156.057" cy="263.892" rx="1.01972" ry="1.08597" fill="#27AAE1"/>
<ellipse cx="178.491" cy="263.892" rx="1.01972" ry="1.08597" fill="#27AAE1"/>
<ellipse cx="200.925" cy="263.892" rx="1.01972" ry="1.08597" fill="#27AAE1"/>
<ellipse cx="223.359" cy="263.892" rx="1.01972" ry="1.08597" fill="#27AAE1"/>
<ellipse cx="245.793" cy="263.892" rx="1.01972" ry="1.08597" fill="#27AAE1"/>
<ellipse cx="268.227" cy="263.892" rx="1.01972" ry="1.08597" fill="#27AAE1"/>
<ellipse cx="290.661" cy="263.892" rx="1.01972" ry="1.08597" fill="#27AAE1"/>
<ellipse cx="313.095" cy="263.892" rx="1.01972" ry="1.08597" fill="#27AAE1"/>
<ellipse cx="335.529" cy="263.892" rx="1.01972" ry="1.08597" fill="#27AAE1"/>
<ellipse cx="357.963" cy="263.892" rx="1.01972" ry="1.08597" fill="#27AAE1"/>
<ellipse cx="380.396" cy="263.892" rx="1.01972" ry="1.08597" fill="#27AAE1"/>
<ellipse cx="402.83" cy="263.892" rx="1.01972" ry="1.08597" fill="#27AAE1"/>
<ellipse cx="425.264" cy="263.892" rx="1.01972" ry="1.08597" fill="#27AAE1"/>
<ellipse cx="447.698" cy="263.892" rx="1.01972" ry="1.08597" fill="#27AAE1"/>
<ellipse cx="470.132" cy="263.892" rx="1.01972" ry="1.08597" fill="#27AAE1"/>
<ellipse cx="492.566" cy="263.892" rx="1.01972" ry="1.08597" fill="#27AAE1"/>
<ellipse cx="515" cy="263.892" rx="1.01972" ry="1.08597" fill="#27AAE1"/>
<ellipse cx="537.434" cy="263.892" rx="1.01972" ry="1.08597" fill="#27AAE1"/>
<ellipse cx="559.868" cy="263.892" rx="1.01972" ry="1.08597" fill="#27AAE1"/>
<ellipse cx="582.302" cy="263.892" rx="1.01972" ry="1.08597" fill="#27AAE1"/>
<ellipse cx="604.736" cy="263.892" rx="1.01972" ry="1.08597" fill="#27AAE1"/>
<ellipse cx="627.17" cy="263.892" rx="1.01972" ry="1.08597" fill="#27AAE1"/>
<ellipse cx="649.603" cy="263.892" rx="1.01972" ry="1.08597" fill="#27AAE1"/>
<ellipse cx="672.038" cy="263.892" rx="1.01972" ry="1.08597" fill="#27AAE1"/>
<ellipse cx="694.471" cy="263.892" rx="1.01972" ry="1.08597" fill="#27AAE1"/>
<ellipse cx="716.905" cy="263.892" rx="1.01972" ry="1.08597" fill="#27AAE1"/>
<ellipse cx="739.339" cy="263.892" rx="1.01972" ry="1.08597" fill="#27AAE1"/>
<ellipse cx="761.773" cy="263.892" rx="1.01972" ry="1.08597" fill="#27AAE1"/>
<ellipse cx="784.207" cy="263.892" rx="1.01972" ry="1.08597" fill="#27AAE1"/>
<ellipse cx="806.641" cy="263.892" rx="1.01972" ry="1.08597" fill="#27AAE1"/>
<ellipse cx="829.075" cy="263.892" rx="1.01972" ry="1.08597" fill="#27AAE1"/>
<ellipse cx="851.509" cy="263.892" rx="1.01972" ry="1.08597" fill="#27AAE1"/>
<ellipse cx="873.943" cy="263.892" rx="1.01972" ry="1.08597" fill="#27AAE1"/>
<ellipse cx="896.377" cy="263.892" rx="1.01972" ry="1.08597" fill="#27AAE1"/>
<ellipse cx="918.811" cy="263.892" rx="1.01972" ry="1.08597" fill="#27AAE1"/>
<ellipse cx="941.245" cy="263.892" rx="1.01972" ry="1.08597" fill="#27AAE1"/>
<ellipse cx="963.678" cy="263.892" rx="1.01972" ry="1.08597" fill="#27AAE1"/>
<ellipse cx="986.112" cy="263.892" rx="1.01972" ry="1.08597" fill="#27AAE1"/>
<ellipse cx="1008.55" cy="263.892" rx="1.01972" ry="1.08597" fill="#27AAE1"/>
<ellipse cx="1030.98" cy="263.892" rx="1.01972" ry="1.08597" fill="#27AAE1"/>
<ellipse cx="-0.980276" cy="287.783" rx="1.01972" ry="1.08597" fill="#27AAE1"/>
<ellipse cx="21.4536" cy="287.783" rx="1.01972" ry="1.08597" fill="#27AAE1"/>
<ellipse cx="43.8876" cy="287.783" rx="1.01972" ry="1.08597" fill="#27AAE1"/>
<ellipse cx="66.3215" cy="287.783" rx="1.01972" ry="1.08597" fill="#27AAE1"/>
<ellipse cx="88.7553" cy="287.783" rx="1.01972" ry="1.08597" fill="#27AAE1"/>
<ellipse cx="111.189" cy="287.783" rx="1.01972" ry="1.08597" fill="#27AAE1"/>
<ellipse cx="133.623" cy="287.783" rx="1.01972" ry="1.08597" fill="#27AAE1"/>
<ellipse cx="156.057" cy="287.783" rx="1.01972" ry="1.08597" fill="#27AAE1"/>
<ellipse cx="178.491" cy="287.783" rx="1.01972" ry="1.08597" fill="#27AAE1"/>
<ellipse cx="200.925" cy="287.783" rx="1.01972" ry="1.08597" fill="#27AAE1"/>
<ellipse cx="223.359" cy="287.783" rx="1.01972" ry="1.08597" fill="#27AAE1"/>
<ellipse cx="245.793" cy="287.783" rx="1.01972" ry="1.08597" fill="#27AAE1"/>
<ellipse cx="268.227" cy="287.783" rx="1.01972" ry="1.08597" fill="#27AAE1"/>
<ellipse cx="290.661" cy="287.783" rx="1.01972" ry="1.08597" fill="#27AAE1"/>
<ellipse cx="313.095" cy="287.783" rx="1.01972" ry="1.08597" fill="#27AAE1"/>
<ellipse cx="963.678" cy="287.783" rx="1.01972" ry="1.08597" fill="#27AAE1"/>
<ellipse cx="986.112" cy="287.783" rx="1.01972" ry="1.08597" fill="#27AAE1"/>
<ellipse cx="1008.55" cy="287.783" rx="1.01972" ry="1.08597" fill="#27AAE1"/>
<ellipse cx="1030.98" cy="287.783" rx="1.01972" ry="1.08597" fill="#27AAE1"/>
<ellipse cx="-0.980276" cy="311.674" rx="1.01972" ry="1.08597" fill="#27AAE1"/>
<ellipse cx="21.4536" cy="311.674" rx="1.01972" ry="1.08597" fill="#27AAE1"/>
<ellipse cx="43.8876" cy="311.674" rx="1.01972" ry="1.08597" fill="#27AAE1"/>
<ellipse cx="66.3215" cy="311.674" rx="1.01972" ry="1.08597" fill="#27AAE1"/>
<ellipse cx="88.7553" cy="311.674" rx="1.01972" ry="1.08597" fill="#27AAE1"/>
<ellipse cx="111.189" cy="311.674" rx="1.01972" ry="1.08597" fill="#27AAE1"/>
<ellipse cx="133.623" cy="311.674" rx="1.01972" ry="1.08597" fill="#27AAE1"/>
<ellipse cx="156.057" cy="311.674" rx="1.01972" ry="1.08597" fill="#27AAE1"/>
<ellipse cx="178.491" cy="311.674" rx="1.01972" ry="1.08597" fill="#27AAE1"/>
<ellipse cx="200.925" cy="311.674" rx="1.01972" ry="1.08597" fill="#27AAE1"/>
<ellipse cx="223.359" cy="311.674" rx="1.01972" ry="1.08597" fill="#27AAE1"/>
<ellipse cx="245.793" cy="311.674" rx="1.01972" ry="1.08597" fill="#27AAE1"/>
<ellipse cx="268.227" cy="311.674" rx="1.01972" ry="1.08597" fill="#27AAE1"/>
<ellipse cx="290.661" cy="311.674" rx="1.01972" ry="1.08597" fill="#27AAE1"/>
<ellipse cx="313.095" cy="311.674" rx="1.01972" ry="1.08597" fill="#27AAE1"/>
<ellipse cx="963.678" cy="311.674" rx="1.01972" ry="1.08597" fill="#27AAE1"/>
<ellipse cx="986.112" cy="311.674" rx="1.01972" ry="1.08597" fill="#27AAE1"/>
<ellipse cx="1008.55" cy="311.674" rx="1.01972" ry="1.08597" fill="#27AAE1"/>
<ellipse cx="1030.98" cy="311.674" rx="1.01972" ry="1.08597" fill="#27AAE1"/>
<ellipse cx="-0.980276" cy="335.565" rx="1.01972" ry="1.08597" fill="#27AAE1"/>
<ellipse cx="21.4536" cy="335.565" rx="1.01972" ry="1.08597" fill="#27AAE1"/>
<ellipse cx="43.8876" cy="335.565" rx="1.01972" ry="1.08597" fill="#27AAE1"/>
<ellipse cx="66.3215" cy="335.565" rx="1.01972" ry="1.08597" fill="#27AAE1"/>
<ellipse cx="88.7553" cy="335.565" rx="1.01972" ry="1.08597" fill="#27AAE1"/>
<ellipse cx="111.189" cy="335.565" rx="1.01972" ry="1.08597" fill="#27AAE1"/>
<ellipse cx="133.623" cy="335.565" rx="1.01972" ry="1.08597" fill="#27AAE1"/>
<ellipse cx="156.057" cy="335.565" rx="1.01972" ry="1.08597" fill="#27AAE1"/>
<ellipse cx="178.491" cy="335.565" rx="1.01972" ry="1.08597" fill="#27AAE1"/>
<ellipse cx="200.925" cy="335.565" rx="1.01972" ry="1.08597" fill="#27AAE1"/>
<ellipse cx="223.359" cy="335.565" rx="1.01972" ry="1.08597" fill="#27AAE1"/>
<ellipse cx="245.793" cy="335.565" rx="1.01972" ry="1.08597" fill="#27AAE1"/>
<ellipse cx="268.227" cy="335.565" rx="1.01972" ry="1.08597" fill="#27AAE1"/>
<ellipse cx="290.661" cy="335.565" rx="1.01972" ry="1.08597" fill="#27AAE1"/>
<ellipse cx="313.095" cy="335.565" rx="1.01972" ry="1.08597" fill="#27AAE1"/>
<ellipse cx="335.529" cy="335.565" rx="1.01972" ry="1.08597" fill="#27AAE1"/>
<ellipse cx="357.963" cy="335.565" rx="1.01972" ry="1.08597" fill="#27AAE1"/>
<ellipse cx="380.396" cy="335.565" rx="1.01972" ry="1.08597" fill="#27AAE1"/>
<ellipse cx="402.83" cy="335.565" rx="1.01972" ry="1.08597" fill="#27AAE1"/>
<ellipse cx="425.264" cy="335.565" rx="1.01972" ry="1.08597" fill="#27AAE1"/>
<ellipse cx="447.698" cy="335.565" rx="1.01972" ry="1.08597" fill="#27AAE1"/>
<ellipse cx="470.132" cy="335.565" rx="1.01972" ry="1.08597" fill="#27AAE1"/>
<ellipse cx="492.566" cy="335.565" rx="1.01972" ry="1.08597" fill="#27AAE1"/>
<ellipse cx="515" cy="335.565" rx="1.01972" ry="1.08597" fill="#27AAE1"/>
<ellipse cx="537.434" cy="335.565" rx="1.01972" ry="1.08597" fill="#27AAE1"/>
<ellipse cx="559.868" cy="335.565" rx="1.01972" ry="1.08597" fill="#27AAE1"/>
<ellipse cx="582.302" cy="335.565" rx="1.01972" ry="1.08597" fill="#27AAE1"/>
<ellipse cx="604.736" cy="335.565" rx="1.01972" ry="1.08597" fill="#27AAE1"/>
<ellipse cx="627.17" cy="335.565" rx="1.01972" ry="1.08597" fill="#27AAE1"/>
<ellipse cx="649.603" cy="335.565" rx="1.01972" ry="1.08597" fill="#27AAE1"/>
<ellipse cx="672.038" cy="335.565" rx="1.01972" ry="1.08597" fill="#27AAE1"/>
<ellipse cx="694.471" cy="335.565" rx="1.01972" ry="1.08597" fill="#27AAE1"/>
<ellipse cx="716.905" cy="335.565" rx="1.01972" ry="1.08597" fill="#27AAE1"/>
<ellipse cx="739.339" cy="335.565" rx="1.01972" ry="1.08597" fill="#27AAE1"/>
<ellipse cx="761.773" cy="335.565" rx="1.01972" ry="1.08597" fill="#27AAE1"/>
<ellipse cx="784.207" cy="335.565" rx="1.01972" ry="1.08597" fill="#27AAE1"/>
<ellipse cx="806.641" cy="335.565" rx="1.01972" ry="1.08597" fill="#27AAE1"/>
<ellipse cx="829.075" cy="335.565" rx="1.01972" ry="1.08597" fill="#27AAE1"/>
<ellipse cx="851.509" cy="335.565" rx="1.01972" ry="1.08597" fill="#27AAE1"/>
<ellipse cx="873.943" cy="335.565" rx="1.01972" ry="1.08597" fill="#27AAE1"/>
<ellipse cx="896.377" cy="335.565" rx="1.01972" ry="1.08597" fill="#27AAE1"/>
<ellipse cx="918.811" cy="335.565" rx="1.01972" ry="1.08597" fill="#27AAE1"/>
<ellipse cx="941.245" cy="335.565" rx="1.01972" ry="1.08597" fill="#27AAE1"/>
<ellipse cx="963.678" cy="335.565" rx="1.01972" ry="1.08597" fill="#27AAE1"/>
<ellipse cx="986.112" cy="335.565" rx="1.01972" ry="1.08597" fill="#27AAE1"/>
<ellipse cx="1008.55" cy="335.565" rx="1.01972" ry="1.08597" fill="#27AAE1"/>
<ellipse cx="1030.98" cy="335.565" rx="1.01972" ry="1.08597" fill="#27AAE1"/>
<ellipse cx="-0.980276" cy="359.457" rx="1.01972" ry="1.08597" fill="#27AAE1"/>
<ellipse cx="21.4536" cy="359.457" rx="1.01972" ry="1.08597" fill="#27AAE1"/>
<ellipse cx="43.8876" cy="359.457" rx="1.01972" ry="1.08597" fill="#27AAE1"/>
<ellipse cx="66.3215" cy="359.457" rx="1.01972" ry="1.08597" fill="#27AAE1"/>
<ellipse cx="88.7553" cy="359.457" rx="1.01972" ry="1.08597" fill="#27AAE1"/>
<ellipse cx="111.189" cy="359.457" rx="1.01972" ry="1.08597" fill="#27AAE1"/>
<ellipse cx="133.623" cy="359.457" rx="1.01972" ry="1.08597" fill="#27AAE1"/>
<ellipse cx="156.057" cy="359.457" rx="1.01972" ry="1.08597" fill="#27AAE1"/>
<ellipse cx="178.491" cy="359.457" rx="1.01972" ry="1.08597" fill="#27AAE1"/>
<ellipse cx="200.925" cy="359.457" rx="1.01972" ry="1.08597" fill="#27AAE1"/>
<ellipse cx="223.359" cy="359.457" rx="1.01972" ry="1.08597" fill="#27AAE1"/>
<ellipse cx="245.793" cy="359.457" rx="1.01972" ry="1.08597" fill="#27AAE1"/>
<ellipse cx="268.227" cy="359.457" rx="1.01972" ry="1.08597" fill="#27AAE1"/>
<ellipse cx="290.661" cy="359.457" rx="1.01972" ry="1.08597" fill="#27AAE1"/>
<ellipse cx="313.095" cy="359.457" rx="1.01972" ry="1.08597" fill="#27AAE1"/>
<ellipse cx="335.529" cy="359.457" rx="1.01972" ry="1.08597" fill="#27AAE1"/>
<ellipse cx="357.963" cy="359.457" rx="1.01972" ry="1.08597" fill="#27AAE1"/>
<ellipse cx="380.396" cy="359.457" rx="1.01972" ry="1.08597" fill="#27AAE1"/>
<ellipse cx="402.83" cy="359.457" rx="1.01972" ry="1.08597" fill="#27AAE1"/>
<ellipse cx="425.264" cy="359.457" rx="1.01972" ry="1.08597" fill="#27AAE1"/>
<ellipse cx="447.698" cy="359.457" rx="1.01972" ry="1.08597" fill="#27AAE1"/>
<ellipse cx="470.132" cy="359.457" rx="1.01972" ry="1.08597" fill="#27AAE1"/>
<ellipse cx="492.566" cy="359.457" rx="1.01972" ry="1.08597" fill="#27AAE1"/>
<ellipse cx="515" cy="359.457" rx="1.01972" ry="1.08597" fill="#27AAE1"/>
<ellipse cx="537.434" cy="359.457" rx="1.01972" ry="1.08597" fill="#27AAE1"/>
<ellipse cx="559.868" cy="359.457" rx="1.01972" ry="1.08597" fill="#27AAE1"/>
<ellipse cx="582.302" cy="359.457" rx="1.01972" ry="1.08597" fill="#27AAE1"/>
<ellipse cx="604.736" cy="359.457" rx="1.01972" ry="1.08597" fill="#27AAE1"/>
<ellipse cx="627.17" cy="359.457" rx="1.01972" ry="1.08597" fill="#27AAE1"/>
<ellipse cx="649.603" cy="359.457" rx="1.01972" ry="1.08597" fill="#27AAE1"/>
<ellipse cx="672.038" cy="359.457" rx="1.01972" ry="1.08597" fill="#27AAE1"/>
<ellipse cx="694.471" cy="359.457" rx="1.01972" ry="1.08597" fill="#27AAE1"/>
<ellipse cx="716.905" cy="359.457" rx="1.01972" ry="1.08597" fill="#27AAE1"/>
<ellipse cx="739.339" cy="359.457" rx="1.01972" ry="1.08597" fill="#27AAE1"/>
<ellipse cx="761.773" cy="359.457" rx="1.01972" ry="1.08597" fill="#27AAE1"/>
<ellipse cx="784.207" cy="359.457" rx="1.01972" ry="1.08597" fill="#27AAE1"/>
<ellipse cx="806.641" cy="359.457" rx="1.01972" ry="1.08597" fill="#27AAE1"/>
<ellipse cx="829.075" cy="359.457" rx="1.01972" ry="1.08597" fill="#27AAE1"/>
<ellipse cx="851.509" cy="359.457" rx="1.01972" ry="1.08597" fill="#27AAE1"/>
<ellipse cx="873.943" cy="359.457" rx="1.01972" ry="1.08597" fill="#27AAE1"/>
<ellipse cx="896.377" cy="359.457" rx="1.01972" ry="1.08597" fill="#27AAE1"/>
<ellipse cx="918.811" cy="359.457" rx="1.01972" ry="1.08597" fill="#27AAE1"/>
<ellipse cx="941.245" cy="359.457" rx="1.01972" ry="1.08597" fill="#27AAE1"/>
<ellipse cx="963.678" cy="359.457" rx="1.01972" ry="1.08597" fill="#27AAE1"/>
<ellipse cx="986.112" cy="359.457" rx="1.01972" ry="1.08597" fill="#27AAE1"/>
<ellipse cx="1008.55" cy="359.457" rx="1.01972" ry="1.08597" fill="#27AAE1"/>
<ellipse cx="1030.98" cy="359.457" rx="1.01972" ry="1.08597" fill="#27AAE1"/>
<ellipse cx="-0.980276" cy="383.348" rx="1.01972" ry="1.08597" fill="#27AAE1"/>
<ellipse cx="21.4536" cy="383.348" rx="1.01972" ry="1.08597" fill="#27AAE1"/>
<ellipse cx="43.8876" cy="383.348" rx="1.01972" ry="1.08597" fill="#27AAE1"/>
<ellipse cx="66.3215" cy="383.348" rx="1.01972" ry="1.08597" fill="#27AAE1"/>
<ellipse cx="88.7553" cy="383.348" rx="1.01972" ry="1.08597" fill="#27AAE1"/>
<ellipse cx="111.189" cy="383.348" rx="1.01972" ry="1.08597" fill="#27AAE1"/>
<ellipse cx="133.623" cy="383.348" rx="1.01972" ry="1.08597" fill="#27AAE1"/>
<ellipse cx="156.057" cy="383.348" rx="1.01972" ry="1.08597" fill="#27AAE1"/>
<ellipse cx="178.491" cy="383.348" rx="1.01972" ry="1.08597" fill="#27AAE1"/>
<ellipse cx="200.925" cy="383.348" rx="1.01972" ry="1.08597" fill="#27AAE1"/>
<ellipse cx="223.359" cy="383.348" rx="1.01972" ry="1.08597" fill="#27AAE1"/>
<ellipse cx="245.793" cy="383.348" rx="1.01972" ry="1.08597" fill="#27AAE1"/>
<ellipse cx="268.227" cy="383.348" rx="1.01972" ry="1.08597" fill="#27AAE1"/>
<ellipse cx="290.661" cy="383.348" rx="1.01972" ry="1.08597" fill="#27AAE1"/>
<ellipse cx="313.095" cy="383.348" rx="1.01972" ry="1.08597" fill="#27AAE1"/>
<ellipse cx="335.529" cy="383.348" rx="1.01972" ry="1.08597" fill="#27AAE1"/>
<ellipse cx="357.963" cy="383.348" rx="1.01972" ry="1.08597" fill="#27AAE1"/>
<ellipse cx="380.396" cy="383.348" rx="1.01972" ry="1.08597" fill="#27AAE1"/>
<ellipse cx="402.83" cy="383.348" rx="1.01972" ry="1.08597" fill="#27AAE1"/>
<ellipse cx="425.264" cy="383.348" rx="1.01972" ry="1.08597" fill="#27AAE1"/>
<ellipse cx="447.698" cy="383.348" rx="1.01972" ry="1.08597" fill="#27AAE1"/>
<ellipse cx="470.132" cy="383.348" rx="1.01972" ry="1.08597" fill="#27AAE1"/>
<ellipse cx="492.566" cy="383.348" rx="1.01972" ry="1.08597" fill="#27AAE1"/>
<ellipse cx="515" cy="383.348" rx="1.01972" ry="1.08597" fill="#27AAE1"/>
<ellipse cx="537.434" cy="383.348" rx="1.01972" ry="1.08597" fill="#27AAE1"/>
<ellipse cx="559.868" cy="383.348" rx="1.01972" ry="1.08597" fill="#27AAE1"/>
<ellipse cx="582.302" cy="383.348" rx="1.01972" ry="1.08597" fill="#27AAE1"/>
<ellipse cx="604.736" cy="383.348" rx="1.01972" ry="1.08597" fill="#27AAE1"/>
<ellipse cx="627.17" cy="383.348" rx="1.01972" ry="1.08597" fill="#27AAE1"/>
<ellipse cx="649.603" cy="383.348" rx="1.01972" ry="1.08597" fill="#27AAE1"/>
<ellipse cx="672.038" cy="383.348" rx="1.01972" ry="1.08597" fill="#27AAE1"/>
<ellipse cx="694.471" cy="383.348" rx="1.01972" ry="1.08597" fill="#27AAE1"/>
<ellipse cx="716.905" cy="383.348" rx="1.01972" ry="1.08597" fill="#27AAE1"/>
<ellipse cx="739.339" cy="383.348" rx="1.01972" ry="1.08597" fill="#27AAE1"/>
<ellipse cx="761.773" cy="383.348" rx="1.01972" ry="1.08597" fill="#27AAE1"/>
<ellipse cx="784.207" cy="383.348" rx="1.01972" ry="1.08597" fill="#27AAE1"/>
<ellipse cx="806.641" cy="383.348" rx="1.01972" ry="1.08597" fill="#27AAE1"/>
<ellipse cx="829.075" cy="383.348" rx="1.01972" ry="1.08597" fill="#27AAE1"/>
<ellipse cx="851.509" cy="383.348" rx="1.01972" ry="1.08597" fill="#27AAE1"/>
<ellipse cx="873.943" cy="383.348" rx="1.01972" ry="1.08597" fill="#27AAE1"/>
<ellipse cx="896.377" cy="383.348" rx="1.01972" ry="1.08597" fill="#27AAE1"/>
<ellipse cx="918.811" cy="383.348" rx="1.01972" ry="1.08597" fill="#27AAE1"/>
<ellipse cx="941.245" cy="383.348" rx="1.01972" ry="1.08597" fill="#27AAE1"/>
<ellipse cx="963.678" cy="383.348" rx="1.01972" ry="1.08597" fill="#27AAE1"/>
<ellipse cx="986.112" cy="383.348" rx="1.01972" ry="1.08597" fill="#27AAE1"/>
<ellipse cx="1008.55" cy="383.348" rx="1.01972" ry="1.08597" fill="#27AAE1"/>
<ellipse cx="1030.98" cy="383.348" rx="1.01972" ry="1.08597" fill="#27AAE1"/>
<ellipse cx="-0.980276" cy="407.24" rx="1.01972" ry="1.08597" fill="#27AAE1"/>
<ellipse cx="21.4536" cy="407.24" rx="1.01972" ry="1.08597" fill="#27AAE1"/>
<ellipse cx="43.8876" cy="407.24" rx="1.01972" ry="1.08597" fill="#27AAE1"/>
<ellipse cx="66.3215" cy="407.24" rx="1.01972" ry="1.08597" fill="#27AAE1"/>
<ellipse cx="88.7553" cy="407.24" rx="1.01972" ry="1.08597" fill="#27AAE1"/>
<ellipse cx="111.189" cy="407.24" rx="1.01972" ry="1.08597" fill="#27AAE1"/>
<ellipse cx="133.623" cy="407.24" rx="1.01972" ry="1.08597" fill="#27AAE1"/>
<ellipse cx="156.057" cy="407.24" rx="1.01972" ry="1.08597" fill="#27AAE1"/>
<ellipse cx="178.491" cy="407.24" rx="1.01972" ry="1.08597" fill="#27AAE1"/>
<ellipse cx="200.925" cy="407.24" rx="1.01972" ry="1.08597" fill="#27AAE1"/>
<ellipse cx="223.359" cy="407.24" rx="1.01972" ry="1.08597" fill="#27AAE1"/>
<ellipse cx="245.793" cy="407.24" rx="1.01972" ry="1.08597" fill="#27AAE1"/>
<ellipse cx="268.227" cy="407.24" rx="1.01972" ry="1.08597" fill="#27AAE1"/>
<ellipse cx="290.661" cy="407.24" rx="1.01972" ry="1.08597" fill="#27AAE1"/>
<ellipse cx="313.095" cy="407.24" rx="1.01972" ry="1.08597" fill="#27AAE1"/>
<ellipse cx="335.529" cy="407.24" rx="1.01972" ry="1.08597" fill="#27AAE1"/>
<ellipse cx="357.963" cy="407.24" rx="1.01972" ry="1.08597" fill="#27AAE1"/>
<ellipse cx="380.396" cy="407.24" rx="1.01972" ry="1.08597" fill="#27AAE1"/>
<ellipse cx="402.83" cy="407.24" rx="1.01972" ry="1.08597" fill="#27AAE1"/>
<ellipse cx="425.264" cy="407.24" rx="1.01972" ry="1.08597" fill="#27AAE1"/>
<ellipse cx="447.698" cy="407.24" rx="1.01972" ry="1.08597" fill="#27AAE1"/>
<ellipse cx="470.132" cy="407.24" rx="1.01972" ry="1.08597" fill="#27AAE1"/>
<ellipse cx="492.566" cy="407.24" rx="1.01972" ry="1.08597" fill="#27AAE1"/>
<ellipse cx="515" cy="407.24" rx="1.01972" ry="1.08597" fill="#27AAE1"/>
<ellipse cx="537.434" cy="407.24" rx="1.01972" ry="1.08597" fill="#27AAE1"/>
<ellipse cx="559.868" cy="407.24" rx="1.01972" ry="1.08597" fill="#27AAE1"/>
<ellipse cx="582.302" cy="407.24" rx="1.01972" ry="1.08597" fill="#27AAE1"/>
<ellipse cx="604.736" cy="407.24" rx="1.01972" ry="1.08597" fill="#27AAE1"/>
<ellipse cx="627.17" cy="407.24" rx="1.01972" ry="1.08597" fill="#27AAE1"/>
<ellipse cx="649.603" cy="407.24" rx="1.01972" ry="1.08597" fill="#27AAE1"/>
<ellipse cx="672.038" cy="407.24" rx="1.01972" ry="1.08597" fill="#27AAE1"/>
<ellipse cx="694.471" cy="407.24" rx="1.01972" ry="1.08597" fill="#27AAE1"/>
<ellipse cx="716.905" cy="407.24" rx="1.01972" ry="1.08597" fill="#27AAE1"/>
<ellipse cx="739.339" cy="407.24" rx="1.01972" ry="1.08597" fill="#27AAE1"/>
<ellipse cx="761.773" cy="407.24" rx="1.01972" ry="1.08597" fill="#27AAE1"/>
<ellipse cx="784.207" cy="407.24" rx="1.01972" ry="1.08597" fill="#27AAE1"/>
<ellipse cx="806.641" cy="407.24" rx="1.01972" ry="1.08597" fill="#27AAE1"/>
<ellipse cx="829.075" cy="407.24" rx="1.01972" ry="1.08597" fill="#27AAE1"/>
<ellipse cx="851.509" cy="407.24" rx="1.01972" ry="1.08597" fill="#27AAE1"/>
<ellipse cx="873.943" cy="407.24" rx="1.01972" ry="1.08597" fill="#27AAE1"/>
<ellipse cx="896.377" cy="407.24" rx="1.01972" ry="1.08597" fill="#27AAE1"/>
<ellipse cx="918.811" cy="407.24" rx="1.01972" ry="1.08597" fill="#27AAE1"/>
<ellipse cx="941.245" cy="407.24" rx="1.01972" ry="1.08597" fill="#27AAE1"/>
<ellipse cx="963.678" cy="407.24" rx="1.01972" ry="1.08597" fill="#27AAE1"/>
<ellipse cx="986.112" cy="407.24" rx="1.01972" ry="1.08597" fill="#27AAE1"/>
<ellipse cx="1008.55" cy="407.24" rx="1.01972" ry="1.08597" fill="#27AAE1"/>
<ellipse cx="1030.98" cy="407.24" rx="1.01972" ry="1.08597" fill="#27AAE1"/>
<ellipse cx="-0.980276" cy="431.131" rx="1.01972" ry="1.08597" fill="#27AAE1"/>
<ellipse cx="21.4536" cy="431.131" rx="1.01972" ry="1.08597" fill="#27AAE1"/>
<ellipse cx="43.8876" cy="431.131" rx="1.01972" ry="1.08597" fill="#27AAE1"/>
<ellipse cx="66.3215" cy="431.131" rx="1.01972" ry="1.08597" fill="#27AAE1"/>
<ellipse cx="88.7553" cy="431.131" rx="1.01972" ry="1.08597" fill="#27AAE1"/>
<ellipse cx="111.189" cy="431.131" rx="1.01972" ry="1.08597" fill="#27AAE1"/>
<ellipse cx="133.623" cy="431.131" rx="1.01972" ry="1.08597" fill="#27AAE1"/>
<ellipse cx="156.057" cy="431.131" rx="1.01972" ry="1.08597" fill="#27AAE1"/>
<ellipse cx="178.491" cy="431.131" rx="1.01972" ry="1.08597" fill="#27AAE1"/>
<ellipse cx="200.925" cy="431.131" rx="1.01972" ry="1.08597" fill="#27AAE1"/>
<ellipse cx="223.359" cy="431.131" rx="1.01972" ry="1.08597" fill="#27AAE1"/>
<ellipse cx="245.793" cy="431.131" rx="1.01972" ry="1.08597" fill="#27AAE1"/>
<ellipse cx="268.227" cy="431.131" rx="1.01972" ry="1.08597" fill="#27AAE1"/>
<ellipse cx="290.661" cy="431.131" rx="1.01972" ry="1.08597" fill="#27AAE1"/>
<ellipse cx="313.095" cy="431.131" rx="1.01972" ry="1.08597" fill="#27AAE1"/>
<ellipse cx="335.529" cy="431.131" rx="1.01972" ry="1.08597" fill="#27AAE1"/>
<ellipse cx="357.963" cy="431.131" rx="1.01972" ry="1.08597" fill="#27AAE1"/>
<ellipse cx="380.396" cy="431.131" rx="1.01972" ry="1.08597" fill="#27AAE1"/>
<ellipse cx="402.83" cy="431.131" rx="1.01972" ry="1.08597" fill="#27AAE1"/>
<ellipse cx="425.264" cy="431.131" rx="1.01972" ry="1.08597" fill="#27AAE1"/>
<ellipse cx="447.698" cy="431.131" rx="1.01972" ry="1.08597" fill="#27AAE1"/>
<ellipse cx="470.132" cy="431.131" rx="1.01972" ry="1.08597" fill="#27AAE1"/>
<ellipse cx="492.566" cy="431.131" rx="1.01972" ry="1.08597" fill="#27AAE1"/>
<ellipse cx="515" cy="431.131" rx="1.01972" ry="1.08597" fill="#27AAE1"/>
<ellipse cx="537.434" cy="431.131" rx="1.01972" ry="1.08597" fill="#27AAE1"/>
<ellipse cx="559.868" cy="431.131" rx="1.01972" ry="1.08597" fill="#27AAE1"/>
<ellipse cx="582.302" cy="431.131" rx="1.01972" ry="1.08597" fill="#27AAE1"/>
<ellipse cx="604.736" cy="431.131" rx="1.01972" ry="1.08597" fill="#27AAE1"/>
<ellipse cx="627.17" cy="431.131" rx="1.01972" ry="1.08597" fill="#27AAE1"/>
<ellipse cx="649.603" cy="431.131" rx="1.01972" ry="1.08597" fill="#27AAE1"/>
<ellipse cx="672.038" cy="431.131" rx="1.01972" ry="1.08597" fill="#27AAE1"/>
<ellipse cx="694.471" cy="431.131" rx="1.01972" ry="1.08597" fill="#27AAE1"/>
<ellipse cx="716.905" cy="431.131" rx="1.01972" ry="1.08597" fill="#27AAE1"/>
<ellipse cx="739.339" cy="431.131" rx="1.01972" ry="1.08597" fill="#27AAE1"/>
<ellipse cx="761.773" cy="431.131" rx="1.01972" ry="1.08597" fill="#27AAE1"/>
<ellipse cx="784.207" cy="431.131" rx="1.01972" ry="1.08597" fill="#27AAE1"/>
<ellipse cx="806.641" cy="431.131" rx="1.01972" ry="1.08597" fill="#27AAE1"/>
<ellipse cx="829.075" cy="431.131" rx="1.01972" ry="1.08597" fill="#27AAE1"/>
<ellipse cx="851.509" cy="431.131" rx="1.01972" ry="1.08597" fill="#27AAE1"/>
<ellipse cx="873.943" cy="431.131" rx="1.01972" ry="1.08597" fill="#27AAE1"/>
<ellipse cx="896.377" cy="431.131" rx="1.01972" ry="1.08597" fill="#27AAE1"/>
<ellipse cx="918.811" cy="431.131" rx="1.01972" ry="1.08597" fill="#27AAE1"/>
<ellipse cx="941.245" cy="431.131" rx="1.01972" ry="1.08597" fill="#27AAE1"/>
<ellipse cx="963.678" cy="431.131" rx="1.01972" ry="1.08597" fill="#27AAE1"/>
<ellipse cx="986.112" cy="431.131" rx="1.01972" ry="1.08597" fill="#27AAE1"/>
<ellipse cx="1008.55" cy="431.131" rx="1.01972" ry="1.08597" fill="#27AAE1"/>
<ellipse cx="1030.98" cy="431.131" rx="1.01972" ry="1.08597" fill="#27AAE1"/>
<ellipse cx="-0.980276" cy="455.022" rx="1.01972" ry="1.08597" fill="#27AAE1"/>
<ellipse cx="21.4536" cy="455.022" rx="1.01972" ry="1.08597" fill="#27AAE1"/>
<ellipse cx="43.8876" cy="455.022" rx="1.01972" ry="1.08597" fill="#27AAE1"/>
<ellipse cx="66.3215" cy="455.022" rx="1.01972" ry="1.08597" fill="#27AAE1"/>
<ellipse cx="88.7553" cy="455.022" rx="1.01972" ry="1.08597" fill="#27AAE1"/>
<ellipse cx="111.189" cy="455.022" rx="1.01972" ry="1.08597" fill="#27AAE1"/>
<ellipse cx="133.623" cy="455.022" rx="1.01972" ry="1.08597" fill="#27AAE1"/>
<ellipse cx="156.057" cy="455.022" rx="1.01972" ry="1.08597" fill="#27AAE1"/>
<ellipse cx="178.491" cy="455.022" rx="1.01972" ry="1.08597" fill="#27AAE1"/>
<ellipse cx="200.925" cy="455.022" rx="1.01972" ry="1.08597" fill="#27AAE1"/>
<ellipse cx="223.359" cy="455.022" rx="1.01972" ry="1.08597" fill="#27AAE1"/>
<ellipse cx="245.793" cy="455.022" rx="1.01972" ry="1.08597" fill="#27AAE1"/>
<ellipse cx="268.227" cy="455.022" rx="1.01972" ry="1.08597" fill="#27AAE1"/>
<ellipse cx="290.661" cy="455.022" rx="1.01972" ry="1.08597" fill="#27AAE1"/>
<ellipse cx="313.095" cy="455.022" rx="1.01972" ry="1.08597" fill="#27AAE1"/>
<ellipse cx="335.529" cy="455.022" rx="1.01972" ry="1.08597" fill="#27AAE1"/>
<ellipse cx="357.963" cy="455.022" rx="1.01972" ry="1.08597" fill="#27AAE1"/>
<ellipse cx="380.396" cy="455.022" rx="1.01972" ry="1.08597" fill="#27AAE1"/>
<ellipse cx="402.83" cy="455.022" rx="1.01972" ry="1.08597" fill="#27AAE1"/>
<ellipse cx="425.264" cy="455.022" rx="1.01972" ry="1.08597" fill="#27AAE1"/>
<ellipse cx="447.698" cy="455.022" rx="1.01972" ry="1.08597" fill="#27AAE1"/>
<ellipse cx="470.132" cy="455.022" rx="1.01972" ry="1.08597" fill="#27AAE1"/>
<ellipse cx="492.566" cy="455.022" rx="1.01972" ry="1.08597" fill="#27AAE1"/>
<ellipse cx="515" cy="455.022" rx="1.01972" ry="1.08597" fill="#27AAE1"/>
<ellipse cx="537.434" cy="455.022" rx="1.01972" ry="1.08597" fill="#27AAE1"/>
<ellipse cx="559.868" cy="455.022" rx="1.01972" ry="1.08597" fill="#27AAE1"/>
<ellipse cx="582.302" cy="455.022" rx="1.01972" ry="1.08597" fill="#27AAE1"/>
<ellipse cx="604.736" cy="455.022" rx="1.01972" ry="1.08597" fill="#27AAE1"/>
<ellipse cx="627.17" cy="455.022" rx="1.01972" ry="1.08597" fill="#27AAE1"/>
<ellipse cx="649.603" cy="455.022" rx="1.01972" ry="1.08597" fill="#27AAE1"/>
<ellipse cx="672.038" cy="455.022" rx="1.01972" ry="1.08597" fill="#27AAE1"/>
<ellipse cx="694.471" cy="455.022" rx="1.01972" ry="1.08597" fill="#27AAE1"/>
<ellipse cx="716.905" cy="455.022" rx="1.01972" ry="1.08597" fill="#27AAE1"/>
<ellipse cx="739.339" cy="455.022" rx="1.01972" ry="1.08597" fill="#27AAE1"/>
<ellipse cx="761.773" cy="455.022" rx="1.01972" ry="1.08597" fill="#27AAE1"/>
<ellipse cx="784.207" cy="455.022" rx="1.01972" ry="1.08597" fill="#27AAE1"/>
<ellipse cx="806.641" cy="455.022" rx="1.01972" ry="1.08597" fill="#27AAE1"/>
<ellipse cx="829.075" cy="455.022" rx="1.01972" ry="1.08597" fill="#27AAE1"/>
<ellipse cx="851.509" cy="455.022" rx="1.01972" ry="1.08597" fill="#27AAE1"/>
<ellipse cx="873.943" cy="455.022" rx="1.01972" ry="1.08597" fill="#27AAE1"/>
<ellipse cx="896.377" cy="455.022" rx="1.01972" ry="1.08597" fill="#27AAE1"/>
<ellipse cx="918.811" cy="455.022" rx="1.01972" ry="1.08597" fill="#27AAE1"/>
<ellipse cx="941.245" cy="455.022" rx="1.01972" ry="1.08597" fill="#27AAE1"/>
<ellipse cx="963.678" cy="455.022" rx="1.01972" ry="1.08597" fill="#27AAE1"/>
<ellipse cx="986.112" cy="455.022" rx="1.01972" ry="1.08597" fill="#27AAE1"/>
<ellipse cx="1008.55" cy="455.022" rx="1.01972" ry="1.08597" fill="#27AAE1"/>
<ellipse cx="1030.98" cy="455.022" rx="1.01972" ry="1.08597" fill="#27AAE1"/>
<ellipse cx="-0.980276" cy="478.914" rx="1.01972" ry="1.08597" fill="#27AAE1"/>
<ellipse cx="21.4536" cy="478.914" rx="1.01972" ry="1.08597" fill="#27AAE1"/>
<ellipse cx="43.8876" cy="478.914" rx="1.01972" ry="1.08597" fill="#27AAE1"/>
<ellipse cx="66.3215" cy="478.914" rx="1.01972" ry="1.08597" fill="#27AAE1"/>
<ellipse cx="88.7553" cy="478.914" rx="1.01972" ry="1.08597" fill="#27AAE1"/>
<ellipse cx="111.189" cy="478.914" rx="1.01972" ry="1.08597" fill="#27AAE1"/>
<ellipse cx="133.623" cy="478.914" rx="1.01972" ry="1.08597" fill="#27AAE1"/>
<ellipse cx="156.057" cy="478.914" rx="1.01972" ry="1.08597" fill="#27AAE1"/>
<ellipse cx="178.491" cy="478.914" rx="1.01972" ry="1.08597" fill="#27AAE1"/>
<ellipse cx="200.925" cy="478.914" rx="1.01972" ry="1.08597" fill="#27AAE1"/>
<ellipse cx="223.359" cy="478.914" rx="1.01972" ry="1.08597" fill="#27AAE1"/>
<ellipse cx="245.793" cy="478.914" rx="1.01972" ry="1.08597" fill="#27AAE1"/>
<ellipse cx="268.227" cy="478.914" rx="1.01972" ry="1.08597" fill="#27AAE1"/>
<ellipse cx="290.661" cy="478.914" rx="1.01972" ry="1.08597" fill="#27AAE1"/>
<ellipse cx="313.095" cy="478.914" rx="1.01972" ry="1.08597" fill="#27AAE1"/>
<ellipse cx="335.529" cy="478.914" rx="1.01972" ry="1.08597" fill="#27AAE1"/>
<ellipse cx="357.963" cy="478.914" rx="1.01972" ry="1.08597" fill="#27AAE1"/>
<ellipse cx="380.396" cy="478.914" rx="1.01972" ry="1.08597" fill="#27AAE1"/>
<ellipse cx="402.83" cy="478.914" rx="1.01972" ry="1.08597" fill="#27AAE1"/>
<ellipse cx="425.264" cy="478.914" rx="1.01972" ry="1.08597" fill="#27AAE1"/>
<ellipse cx="447.698" cy="478.914" rx="1.01972" ry="1.08597" fill="#27AAE1"/>
<ellipse cx="470.132" cy="478.914" rx="1.01972" ry="1.08597" fill="#27AAE1"/>
<ellipse cx="492.566" cy="478.914" rx="1.01972" ry="1.08597" fill="#27AAE1"/>
<ellipse cx="515" cy="478.914" rx="1.01972" ry="1.08597" fill="#27AAE1"/>
<ellipse cx="537.434" cy="478.914" rx="1.01972" ry="1.08597" fill="#27AAE1"/>
<ellipse cx="559.868" cy="478.914" rx="1.01972" ry="1.08597" fill="#27AAE1"/>
<ellipse cx="582.302" cy="478.914" rx="1.01972" ry="1.08597" fill="#27AAE1"/>
<ellipse cx="604.736" cy="478.914" rx="1.01972" ry="1.08597" fill="#27AAE1"/>
<ellipse cx="627.17" cy="478.914" rx="1.01972" ry="1.08597" fill="#27AAE1"/>
<ellipse cx="649.603" cy="478.914" rx="1.01972" ry="1.08597" fill="#27AAE1"/>
<ellipse cx="672.038" cy="478.914" rx="1.01972" ry="1.08597" fill="#27AAE1"/>
<ellipse cx="694.471" cy="478.914" rx="1.01972" ry="1.08597" fill="#27AAE1"/>
<ellipse cx="716.905" cy="478.914" rx="1.01972" ry="1.08597" fill="#27AAE1"/>
<ellipse cx="739.339" cy="478.914" rx="1.01972" ry="1.08597" fill="#27AAE1"/>
<ellipse cx="761.773" cy="478.914" rx="1.01972" ry="1.08597" fill="#27AAE1"/>
<ellipse cx="784.207" cy="478.914" rx="1.01972" ry="1.08597" fill="#27AAE1"/>
<ellipse cx="806.641" cy="478.914" rx="1.01972" ry="1.08597" fill="#27AAE1"/>
<ellipse cx="829.075" cy="478.914" rx="1.01972" ry="1.08597" fill="#27AAE1"/>
<ellipse cx="851.509" cy="478.914" rx="1.01972" ry="1.08597" fill="#27AAE1"/>
<ellipse cx="873.943" cy="478.914" rx="1.01972" ry="1.08597" fill="#27AAE1"/>
<ellipse cx="896.377" cy="478.914" rx="1.01972" ry="1.08597" fill="#27AAE1"/>
<ellipse cx="918.811" cy="478.914" rx="1.01972" ry="1.08597" fill="#27AAE1"/>
<ellipse cx="941.245" cy="478.914" rx="1.01972" ry="1.08597" fill="#27AAE1"/>
<ellipse cx="963.678" cy="478.914" rx="1.01972" ry="1.08597" fill="#27AAE1"/>
<ellipse cx="986.112" cy="478.914" rx="1.01972" ry="1.08597" fill="#27AAE1"/>
<ellipse cx="1008.55" cy="478.914" rx="1.01972" ry="1.08597" fill="#27AAE1"/>
<ellipse cx="1030.98" cy="478.914" rx="1.01972" ry="1.08597" fill="#27AAE1"/>
</g>
</svg>
