<svg width="98" height="98" viewBox="0 0 98 98" fill="none" xmlns="http://www.w3.org/2000/svg">
<path d="M19.5811 45.8438C29.8279 45.8438 38.1621 54.1779 38.1621 64.4248C38.1621 74.729 29.8299 83.0058 19.5811 83.0059C9.33417 83.0059 1.00005 74.6717 1 64.4248C1 54.1779 9.33414 45.8438 19.5811 45.8438Z" stroke="#00093C" stroke-width="2"/>
<path d="M67.0134 1C67.1315 1.0001 67.2743 1.05571 67.3835 1.21387L88.6111 35.9014L88.6169 35.9092C88.7082 36.0554 88.7118 36.2405 88.6277 36.4033C88.5469 36.5598 88.4208 36.6337 88.2781 36.6338H45.7927C45.6293 36.6337 45.51 36.5547 45.4392 36.4199C45.3659 36.2804 45.3509 36.084 45.4675 35.8857L66.7019 1.18945L66.7058 1.18164C66.7842 1.05101 66.8968 1 67.0134 1Z" stroke="#00093C" stroke-width="2"/>
<path d="M29.7004 1.10742C29.844 0.964051 30.1605 0.963966 30.304 1.10742L37.9583 8.76172C38.0753 8.87881 38.1096 8.99874 38.1096 9.08594C38.1096 9.16996 38.0792 9.25452 37.9963 9.3291L37.9768 9.34668L29.5325 17.791C28.6079 18.7156 28.6079 20.2981 29.5325 21.2227L37.9583 29.6484C38.1016 29.792 38.1017 30.1085 37.9583 30.252L30.304 37.9062C30.1605 38.0497 29.844 38.0496 29.7004 37.9062L21.2747 29.4805C20.3501 28.5559 18.7676 28.5559 17.843 29.4805L9.41724 37.9062C9.27367 38.0496 8.95718 38.0497 8.81372 37.9062L1.15942 30.252C1.01597 30.1085 1.01605 29.792 1.15942 29.6484L9.58521 21.2227C10.5098 20.2981 10.5098 18.7156 9.58521 17.791L1.15942 9.36523C1.01602 9.22168 1.01595 8.90519 1.15942 8.76172L8.81372 1.10742C8.95719 0.96395 9.27369 0.964014 9.41724 1.10742L17.843 9.5332C18.7676 10.4578 20.3501 10.4578 21.2747 9.5332L29.7004 1.10742Z" stroke="#00093C" stroke-width="2"/>
<path d="M70.8839 69.8442L67.137 63.0434M67.137 63.0434C67.137 63.0434 64.8534 58.8985 63.3901 56.2426C62.9217 55.3925 61.8122 55.2827 60.7629 55.4738C60.021 55.6089 59.5831 55.8501 59.0725 56.4051C58.3504 57.1901 57.8508 58.1863 58.3187 59.0367C58.5483 59.4538 66.2809 73.4884 67.686 76.0387C68.9794 78.3862 61.5321 74.2379 61.1181 74.1166C59.8049 73.7319 57.2688 75.1292 58.6739 77.6795C58.9606 78.1999 73.7003 88.5693 77.7332 91.4005C78.3576 91.8389 79.1672 91.876 79.8355 91.5079L92.6686 84.4375C93.4354 84.015 93.838 83.1441 93.6484 82.2893C93.1368 79.9819 92.0531 75.3818 90.8735 72.1287C89.3232 67.8532 86.5667 62.3119 86.098 61.462C84.7778 59.0687 79.1532 60.8557 79.1532 60.8557M67.137 63.0434C67.137 63.0434 69.0098 61.2375 70.5179 61.1807C71.5843 61.1406 73.1451 61.9496 73.1451 61.9496M73.1451 61.9496L75.9553 67.0502M73.1451 61.9496C73.1451 61.9496 73.4308 58.4676 78.2168 59.1552C78.3923 59.1804 79.1532 60.8557 79.1532 60.8557M81.9633 65.9563L79.1532 60.8557" stroke="#00093C" stroke-width="2"/>
</svg>
