<svg width="20" height="12" viewBox="0 0 20 12" fill="none" xmlns="http://www.w3.org/2000/svg">
<path d="M18.5273 0.773438C18.2461 1.96875 15.7148 5.55469 15.7148 5.55469C15.5039 5.90625 15.3984 6.08203 15.7148 6.46875C15.8555 6.64453 18.4922 9.17578 18.8789 10.3711C19.0547 10.9688 18.7734 11.25 18.1758 11.25H16.1016C15.3281 11.25 15.082 10.6523 13.6758 9.24609C12.4453 8.05078 11.918 7.875 11.6016 7.875C10.9688 7.875 11.0742 8.12109 11.0742 10.4766C11.0742 10.9688 10.8984 11.25 9.59766 11.25C7.41797 11.25 4.99219 9.94922 3.26953 7.48828C0.703125 3.86719 0 1.16016 0 0.597656C0 0.28125 0.140625 0 0.703125 0H2.77734C3.30469 0 3.51562 0.246094 3.72656 0.808594C4.74609 3.76172 6.43359 6.36328 7.13672 6.36328C7.41797 6.36328 7.52344 6.22266 7.52344 5.55469V2.49609C7.45312 1.08984 6.71484 0.984375 6.71484 0.492188C6.71484 0.246094 6.89062 0 7.24219 0H10.4766C10.9336 0 11.0742 0.246094 11.0742 0.773438V4.88672C11.0742 5.30859 11.2852 5.48438 11.3906 5.48438C11.6719 5.48438 11.8828 5.30859 12.375 4.85156C13.8516 3.16406 14.9062 0.597656 14.9062 0.597656C15.0469 0.28125 15.293 0 15.8203 0H17.8945C18.5273 0 18.6328 0.351562 18.5273 0.773438Z" fill="white"/>
</svg>
