<svg width="57" height="47" viewBox="0 0 57 47" fill="none" xmlns="http://www.w3.org/2000/svg">
<path d="M53.6175 3.06682H51.2618V0.829671C51.2618 0.370388 50.8914 0 50.4321 0H45.4097C44.9504 0 44.58 0.370388 44.58 0.829671V3.06682H17.0378V0.829671C17.0378 0.370388 16.6674 0 16.2081 0H11.1857C10.7264 0 10.356 0.370388 10.356 0.829671V3.06682H8.41515C6.38542 3.06682 4.72607 4.72617 4.72607 6.7559V27.0384C4.72607 27.4977 5.09646 27.8681 5.55575 27.8681C6.01503 27.8681 6.38542 27.4977 6.38542 27.0384V6.7559C6.38542 5.64473 7.28917 4.72617 8.41515 4.72617H53.6323C54.5212 4.72617 55.2472 5.45213 55.2472 6.34107V33.898C55.2472 34.787 54.5212 35.5129 53.6323 35.5129H51.8544V32.3572C51.8544 31.8979 51.484 31.5276 51.0248 31.5276H42.0761C41.6169 31.5276 41.2465 31.8979 41.2465 32.3572V35.5129H27.8532L31.0089 34.6536C32.6386 34.2092 34.0757 33.2758 35.1425 31.972L40.5057 25.4532C40.6094 25.3198 40.6835 25.1569 40.6983 24.9939L41.1724 18.7713C41.2168 18.1639 40.8465 17.5565 40.2835 17.3194C40.5353 17.1713 40.7131 16.9046 40.7131 16.5934C40.7131 16.1342 40.3427 15.7638 39.8834 15.7638H36.2388C35.7795 15.7638 35.4091 16.1342 35.4091 16.5934C35.4091 17.0527 35.7795 17.4231 36.2388 17.4231H38.9649C38.876 17.4824 38.7871 17.5565 38.713 17.6305L35.661 20.6825C35.0684 21.2752 34.5795 22.0159 34.0609 22.6678C33.7794 23.0234 33.8239 23.5568 34.1943 23.8383C34.5498 24.1198 35.0832 24.0753 35.3647 23.7049L36.3277 22.5197L38.7871 24.9791L33.9128 30.9201C33.0535 31.9572 31.9275 32.698 30.6237 33.0536L17.4675 36.8463C16.4452 37.1723 16.9637 38.7576 17.9712 38.4316L20.8602 37.4982V44.4764H19.7046C19.2453 44.4764 18.875 44.8468 18.875 45.306C18.875 45.7653 19.2453 46.1357 19.7046 46.1357H24.8012C25.2605 46.1357 25.6309 45.7653 25.6309 45.306C25.6309 44.8468 25.2605 44.4764 24.8012 44.4764H22.5344V37.1871H53.6619C55.4694 37.1871 56.9362 35.7204 56.9362 33.9129V6.35588C56.8917 4.53357 55.425 3.06682 53.6175 3.06682ZM46.2245 1.65934H49.5877V3.05201H46.2245V1.65934ZM12.0005 1.65934H15.3637V3.05201H12.0005V1.65934ZM39.4686 19.1862L39.1723 23.0382L37.3944 21.2604L39.4686 19.1862ZM42.8762 35.5129V33.1869H50.1655V35.5129H42.8762Z" fill="#00093C"/>
<path d="M15.6749 44.4762H4.97803V40.0463C4.97803 37.2313 5.62992 34.4312 6.85961 31.9125C7.54113 30.5347 8.96342 29.6458 10.5042 29.6458H24.5494C27.4829 29.6458 30.3423 28.6087 32.5943 26.7271C32.9498 26.4308 32.9943 25.9122 32.698 25.5567C32.4017 25.2011 31.8831 25.1566 31.5275 25.453C29.5719 27.0827 27.0977 27.9864 24.5642 27.9864H18.5195C19.4529 27.0086 20.0307 25.69 20.0307 24.2381V21.1713C22.1789 21.0231 23.8679 19.2452 23.8679 17.0673C23.8679 14.8006 22.0159 12.9486 19.7492 12.9486C18.3565 12.919 17.0379 13.2449 16.0749 14.2968C15.6008 14.8154 14.9193 15.1117 14.223 15.1117H11.9265C10.0153 15.1117 8.4597 16.6673 8.4597 18.5785V24.8307C8.4597 25.5418 8.62267 26.2382 9.05232 26.816C9.24492 27.0827 9.48197 27.3049 9.74865 27.4827C10.045 27.6753 10.4598 27.7494 10.6968 27.9864C8.4597 27.942 6.34107 29.1717 5.36324 31.1866C4.01502 33.9423 3.30387 36.9943 3.30387 40.0611V44.491H0.829673C0.37039 44.491 0 44.8614 0 45.3206C0 45.7799 0.37039 46.1503 0.829673 46.1503H15.6749C16.1342 46.1503 16.5046 45.7799 16.5046 45.3206C16.5194 44.8465 16.1342 44.4762 15.6749 44.4762ZM14.3711 27.9568C13.9118 27.9272 13.4525 27.8086 13.0377 27.616C13.2303 27.5123 13.4229 27.3938 13.5859 27.2605C14.2822 26.6826 14.6674 25.8382 14.6674 24.8751V21.1713H18.3565V24.2233C18.3565 26.2826 16.6823 27.9716 14.6082 27.9716C14.5193 27.9716 14.4452 27.9716 14.3711 27.9568ZM10.1339 24.8159V18.5637C10.1339 17.5711 10.9487 16.7562 11.9414 16.7562H14.223C15.3934 16.7562 16.5046 16.2673 17.3046 15.408C17.9565 14.6968 18.8454 14.5635 19.764 14.5931C21.1122 14.5931 22.2085 15.6895 22.2085 17.0377C22.2085 18.3859 21.1122 19.4823 19.764 19.4823H13.8377C13.3785 19.4823 13.0081 19.8527 13.0081 20.3119V24.8603C13.0081 25.8382 12.1488 26.4456 11.2154 26.2678C10.4746 26.1493 10.1339 25.5418 10.1339 24.8159Z" fill="#00093C"/>
<path d="M28.5347 12.7267H33.0683C33.5275 12.7267 33.8979 12.3563 33.8979 11.897V8.83016C33.8979 8.37088 33.5275 8.00049 33.0683 8.00049H28.5347C28.0754 8.00049 27.705 8.37088 27.705 8.83016V11.897C27.6902 12.3563 28.0606 12.7267 28.5347 12.7267ZM29.3644 9.65983H32.2386V11.0525H29.3644V9.65983Z" fill="#00093C"/>
<path d="M27.6902 18.1045C27.6902 18.5638 28.0606 18.9342 28.5199 18.9342H33.0534C33.5127 18.9342 33.8831 18.5638 33.8831 18.1045V15.0377C33.8831 14.5784 33.5127 14.208 33.0534 14.208H28.5199C28.0606 14.208 27.6902 14.5784 27.6902 15.0377V18.1045ZM29.3643 15.8822H32.2386V17.2748H29.3643V15.8822Z" fill="#00093C"/>
<path d="M36.2093 11.1857H50.9953C51.4545 11.1857 51.8249 10.8153 51.8249 10.356C51.8249 9.89676 51.4545 9.52637 50.9953 9.52637H36.2093C35.75 9.52637 35.3796 9.89676 35.3796 10.356C35.3796 10.8153 35.75 11.1857 36.2093 11.1857Z" fill="#00093C"/>
</svg>
